<?xml version="1.0" encoding="utf-8"?>
<!-- Generator: Adobe Illustrator 25.0.1, SVG Export Plug-In . SVG Version: 6.00 Build 0)  -->
<svg version="1.1" id="Ebene_1" xmlns="http://www.w3.org/2000/svg" xmlns:xlink="http://www.w3.org/1999/xlink" x="0px" y="0px"
	 viewBox="0 0 743 772" style="enable-background:new 0 0 743 772;" xml:space="preserve">
<g>
	<g>
		<path d="M198.46,530.94v-5H206v2.99l2.73,2.73h9.04l2.73-2.73v-6.76l-2.73-2.73h-13.33l-5.98-6.04V502.4l5.98-5.98h17.62
			l5.98,5.98v5.26h-7.54v-3.18l-2.73-2.8h-9.04l-2.73,2.8v6.82l2.73,2.86h13.33l5.98,5.98v10.79l-5.98,5.98h-17.62L198.46,530.94z"
			/>
		<path d="M245.19,530.94V502.4l5.98-5.98h17.62l5.98,5.98v6.5h-7.54v-4.42l-2.73-2.8h-9.04l-2.73,2.8v24.44l2.73,2.73h9.04
			l2.73-2.73v-4.16h7.54v6.17l-5.98,5.98h-17.62L245.19,530.94z"/>
		<path d="M290.11,536.92v-5.26h2.73v-29.97h-2.73v-5.26h12.94v5.26h-2.73v11.25h13.91v-11.25h-2.79v-5.26h13.06v5.26h-2.79v29.97
			h2.79v5.26h-13.06v-5.26h2.79v-12.54h-13.91v12.54h2.73v5.26H290.11z"/>
		<path d="M337.95,536.92v-5.26h2.73v-29.97h-2.73v-5.26h10.14l12.54,20.87l12.42-20.87h10.21v5.26h-2.73v29.97h2.73v5.26h-12.93
			v-5.26h2.67v-22.82l-12.35,20.67l-12.48-20.67v22.82h2.73v5.26H337.95z"/>
		<path d="M396.77,536.92v-5.26h2.73v-29.97h-2.73v-5.26h12.93v5.26h-2.73v29.97h2.73v5.26H396.77z"/>
		<path d="M423.23,536.92v-5.26h2.73v-29.97h-2.73v-5.26h28.41v7.08h-5.2v-1.82h-13v12.42h6.83v-1.82h5.26v8.77h-5.26v-1.75h-6.83
			v12.35h13v-1.82h5.2v7.08H423.23z"/>
		<path d="M465.15,536.92v-5.26h2.73v-29.97h-2.73v-5.26h24.44l5.98,5.98v28.53l-5.98,5.98H465.15z M485.24,531.65l2.86-2.73v-24.44
			l-2.86-2.8h-9.88v29.97H485.24z"/>
		<path d="M510.91,536.92v-5.26h2.73v-29.97h-2.73v-5.26h28.41v7.08h-5.2v-1.82h-13v12.42h6.83v-1.82h5.26v8.77h-5.26v-1.75h-6.83
			v12.35h13v-1.82h5.2v7.08H510.91z"/>
	</g>
	<g>
		<path d="M296.98,562.95c-0.05,2.99-0.43,5.78-1.14,8.36s-1.79,5.05-3.21,7.41c-1.52,2.54-3.28,4.87-5.29,6.99
			s-4.29,4.03-6.85,5.73c-1.13,0.75-2.31,1.41-3.54,1.97c-1.22,0.57-2.52,1.01-3.88,1.33c-1.41,0.34-2.83,0.41-4.28,0.2
			c-1.25-0.23-2.27-0.67-3.08-1.33c-0.8-0.66-1.43-1.5-1.89-2.52c-0.36-0.82-0.61-1.66-0.75-2.52c-0.14-0.86-0.18-1.72-0.14-2.58
			c0.02-1.63,0.2-3.22,0.54-4.76c0.34-1.54,0.78-3.06,1.33-4.56c0.25-0.57,0.51-1.12,0.78-1.67s0.62-1.04,1.05-1.5
			c0.11-0.14,0.24-0.24,0.39-0.32c0.15-0.08,0.3-0.16,0.46-0.25c0.16-0.04,0.31,0,0.44,0.14c0.04,0.05,0.06,0.11,0.05,0.19
			s-0.04,0.14-0.08,0.19c-0.61,0.86-1.09,1.75-1.43,2.65s-0.61,1.86-0.82,2.86c-0.32,1.22-0.58,2.44-0.78,3.66s-0.28,2.45-0.24,3.72
			c0.02,0.84,0.12,1.67,0.29,2.48c0.17,0.82,0.5,1.6,1,2.35c0.93,1.34,2.22,2.04,3.88,2.11c1,0.04,1.94-0.04,2.82-0.25
			c0.88-0.22,1.76-0.5,2.62-0.87c1.59-0.66,3.07-1.46,4.45-2.4c1.38-0.94,2.69-1.96,3.91-3.04c1.22-1.11,2.36-2.27,3.4-3.48
			c1.04-1.21,2.03-2.49,2.96-3.83c1.2-1.81,2.19-3.69,2.97-5.63c0.78-1.94,1.34-3.94,1.68-6c0.23-1.25,0.35-2.5,0.37-3.77
			c0.02-1.27-0.07-2.52-0.27-3.74c-0.11-0.77-0.28-1.51-0.51-2.21c-0.23-0.7-0.57-1.39-1.02-2.07c-1-1.41-2.38-2.15-4.15-2.24
			c-0.84-0.04-1.66,0.01-2.46,0.15c-0.8,0.15-1.59,0.36-2.36,0.63c-2.54,0.91-4.82,2.09-6.85,3.55c-2.03,1.46-3.79,3.28-5.29,5.46
			c-0.54,0.77-0.99,1.56-1.34,2.36c-0.35,0.8-0.58,1.68-0.7,2.63c-0.2,1.61,0.09,2.97,0.88,4.1c0.79,1.12,2.04,1.94,3.74,2.46
			c1.16,0.34,2.32,0.56,3.5,0.65c1.18,0.09,2.37,0.11,3.57,0.07c1.27-0.04,2.52-0.19,3.74-0.44c1.22-0.25,2.46-0.53,3.71-0.85
			c0.07-0.04,0.14-0.07,0.22-0.07c0.08,0,0.18-0.01,0.29-0.03c0.05,0,0.09,0.02,0.14,0.05c0.04,0.03,0.09,0.06,0.14,0.08
			c-0.05,0.02-0.07,0.05-0.07,0.08s-0.02,0.07-0.07,0.12c-0.18,0.11-0.35,0.22-0.49,0.31c-0.15,0.09-0.31,0.18-0.49,0.27
			c-3.49,1.59-7.15,2.31-10.98,2.18c-1.25-0.04-2.44-0.22-3.59-0.53c-1.14-0.31-2.23-0.82-3.25-1.55c-1.13-0.82-1.94-1.77-2.43-2.86
			c-0.49-1.09-0.69-2.29-0.6-3.6c0.07-1.36,0.37-2.63,0.9-3.82c0.53-1.19,1.21-2.35,2.02-3.49c1.7-2.18,3.66-4.02,5.88-5.54
			c2.22-1.52,4.7-2.71,7.45-3.57c0.95-0.27,1.89-0.46,2.82-0.58c0.93-0.11,1.89-0.1,2.89,0.03c2.13,0.34,3.79,1.34,4.96,2.99
			c0.52,0.79,0.92,1.6,1.19,2.43c0.27,0.83,0.48,1.68,0.61,2.57c0.07,0.57,0.12,1.12,0.15,1.67
			C296.93,562.2,296.96,562.63,296.98,562.95z"/>
		<path d="M296.17,577.09c0.34-1.11,0.67-2.21,1-3.31c0.33-1.1,0.69-2.19,1.07-3.28c0.29-0.82,0.61-1.63,0.95-2.45
			c0.34-0.82,0.69-1.63,1.05-2.45c0.45-1,0.92-1.98,1.41-2.96s0.98-1.97,1.48-2.99c0.97-1.99,2.07-3.9,3.28-5.71
			c1.21-1.81,2.5-3.59,3.86-5.34c0.23-0.29,0.46-0.57,0.7-0.82c0.24-0.25,0.48-0.49,0.73-0.71c0.11-0.11,0.25-0.21,0.41-0.31
			c0.16-0.09,0.31-0.16,0.44-0.2c0.43-0.2,0.76-0.14,0.99,0.2c0.23,0.32,0.19,0.66-0.1,1.02c-0.05,0.05-0.09,0.1-0.14,0.15
			s-0.09,0.13-0.14,0.22c-1.07,1.16-2.04,2.36-2.92,3.62c-0.88,1.26-1.73,2.54-2.55,3.86c-1.27,2.02-2.41,4.07-3.42,6.15
			c-1.01,2.09-1.99,4.22-2.94,6.39c-0.73,1.79-1.38,3.59-1.97,5.41c-0.59,1.81-1.11,3.67-1.56,5.58c-0.25,0.95-0.44,1.92-0.56,2.91
			c-0.12,0.99-0.2,1.99-0.22,3.01c0,0.32,0.02,0.63,0.05,0.94c0.03,0.31,0.11,0.62,0.22,0.93c0.09,0.32,0.24,0.52,0.46,0.61
			c0.21,0.09,0.48,0.08,0.8-0.03c0.45-0.14,0.87-0.31,1.26-0.53c0.39-0.22,0.75-0.48,1.09-0.8c0.54-0.54,1.09-1.09,1.63-1.63
			s1.08-1.11,1.6-1.7c1.16-1.31,2.31-2.63,3.47-3.96c1.16-1.33,2.31-2.67,3.47-4.03c0.04-0.04,0.08-0.08,0.1-0.12
			c0.02-0.03,0.06-0.07,0.1-0.12c0.05-0.05,0.09-0.07,0.14-0.07c0.04,0,0.09-0.01,0.14-0.03c0,0.05,0.01,0.09,0.02,0.14
			c0.01,0.04,0.01,0.09-0.02,0.14c-0.2,0.39-0.4,0.75-0.59,1.1c-0.19,0.35-0.4,0.71-0.63,1.07c-0.73,1.22-1.48,2.44-2.26,3.64
			c-0.78,1.2-1.6,2.37-2.46,3.5c-0.57,0.73-1.16,1.42-1.77,2.09c-0.61,0.67-1.28,1.29-2.01,1.85c-0.73,0.59-1.59,1.07-2.58,1.43
			c-0.93,0.29-1.77,0.24-2.53-0.17s-1.25-1.1-1.48-2.07c-0.11-0.43-0.19-0.87-0.22-1.31c-0.03-0.44-0.07-0.89-0.12-1.34h0.1
			C295.04,582.05,295.44,579.54,296.17,577.09z"/>
		<path d="M310.85,579.34c0.41-0.32,0.83-0.63,1.26-0.95c0.43-0.32,0.86-0.65,1.29-0.99c0.63-0.5,1.26-0.99,1.87-1.48
			c0.61-0.49,1.25-0.98,1.9-1.48c0.09-0.07,0.28-0.19,0.56-0.37c0.28-0.18,0.58-0.36,0.9-0.53s0.61-0.3,0.88-0.39s0.44-0.09,0.51,0
			c0.11,0.11,0.14,0.2,0.07,0.25c-0.07,0.06-0.12,0.11-0.17,0.15c-0.79,0.73-1.58,1.45-2.35,2.18c-0.77,0.73-1.56,1.43-2.38,2.11
			c-0.52,0.48-1.05,0.91-1.6,1.31s-1.11,0.81-1.7,1.24c-0.32,0.23-0.67,0.41-1.05,0.54c-0.45,0.18-0.84,0.16-1.16-0.05
			c-0.32-0.21-0.5-0.55-0.54-1c0-0.25,0.01-0.49,0.03-0.73c0.02-0.24,0.07-0.48,0.14-0.73c0.27-0.95,0.6-1.85,0.99-2.69
			c0.39-0.84,0.82-1.69,1.29-2.55c0.05-0.11,0.12-0.24,0.22-0.37c0.1-0.14,0.23-0.25,0.39-0.34c0.07-0.07,0.16-0.11,0.27-0.14
			c0.11-0.02,0.2-0.01,0.27,0.03c0.23,0.07,0.34,0.23,0.34,0.48c-0.02,0.18-0.06,0.37-0.1,0.58s-0.11,0.4-0.2,0.58
			c-0.25,0.68-0.52,1.35-0.82,2.02c-0.29,0.67-0.57,1.35-0.82,2.06c-0.09,0.18-0.16,0.37-0.22,0.58c-0.06,0.2-0.13,0.41-0.22,0.61
			C310.76,579.27,310.81,579.29,310.85,579.34z M313.95,570.36c-0.45-0.18-0.78-0.46-0.97-0.85c-0.19-0.38-0.2-0.8-0.02-1.26
			c0.18-0.43,0.46-0.62,0.85-0.58c0.34,0,0.57,0.23,0.68,0.68c0.05,0.11,0.07,0.29,0.08,0.53c0.01,0.24-0.01,0.46-0.05,0.68
			c-0.05,0.22-0.12,0.41-0.22,0.58C314.2,570.31,314.08,570.38,313.95,570.36z"/>
		<path d="M324.96,574.54c0.11,0.05,0.21,0.07,0.29,0.08c0.08,0.01,0.15,0.02,0.22,0.02c1.11,0,2.15-0.18,3.11-0.53
			s1.93-0.79,2.91-1.31c0.25-0.14,0.41-0.19,0.48-0.17s0.08,0.09,0.05,0.2c-0.03,0.11-0.1,0.24-0.19,0.37
			c-0.09,0.14-0.18,0.25-0.27,0.34c-0.43,0.48-0.94,0.9-1.51,1.26c-0.58,0.36-1.19,0.66-1.82,0.9c-0.63,0.24-1.29,0.4-1.96,0.49
			c-0.67,0.09-1.31,0.1-1.92,0.03c-0.25-0.02-0.42,0.05-0.51,0.2c-1.09,1.77-2.43,3.35-4.01,4.76c-0.2,0.14-0.4,0.28-0.59,0.44
			c-0.19,0.16-0.4,0.29-0.63,0.41c-0.59,0.27-1.13,0.27-1.63,0c-0.5-0.27-0.77-0.77-0.82-1.5c0-0.27,0.01-0.56,0.03-0.85
			c0.02-0.29,0.06-0.57,0.1-0.82c0.11-0.48,0.25-1.01,0.41-1.6c0.16-0.59,0.33-1.18,0.51-1.79c0.18-0.6,0.38-1.19,0.59-1.77
			s0.45-1.09,0.7-1.55c0.07-0.14,0.16-0.28,0.29-0.44c0.12-0.16,0.27-0.29,0.44-0.39c0.17-0.1,0.34-0.18,0.51-0.22
			c0.17-0.05,0.33-0.02,0.49,0.07c0.18,0.07,0.29,0.19,0.34,0.37c0.05,0.18,0.01,0.4-0.1,0.65c-0.07,0.25-0.15,0.5-0.25,0.75
			s-0.21,0.49-0.32,0.71c-0.18,0.36-0.36,0.79-0.53,1.27c-0.17,0.49-0.33,0.99-0.49,1.5c-0.16,0.51-0.3,1.01-0.42,1.51
			c-0.12,0.5-0.23,0.93-0.32,1.29c-0.05,0.11-0.07,0.21-0.07,0.29s-0.01,0.16-0.03,0.25v0.31c0.09-0.04,0.17-0.1,0.24-0.15
			c0.07-0.06,0.14-0.11,0.2-0.15c0.79-0.68,1.52-1.42,2.18-2.23c0.66-0.8,1.25-1.65,1.77-2.53c0.09-0.11,0.14-0.2,0.14-0.27
			c-0.2-0.63-0.27-1.24-0.19-1.8c0.08-0.57,0.24-1.11,0.49-1.63c0.29-0.63,0.62-1.18,0.97-1.63c0.35-0.45,0.83-0.67,1.44-0.65
			c0.23,0,0.4,0.12,0.53,0.36c0.12,0.24,0.2,0.52,0.24,0.83c0.03,0.32,0.05,0.62,0.03,0.92c-0.01,0.29-0.03,0.51-0.05,0.65
			c-0.11,0.52-0.27,0.99-0.48,1.41C325.34,573.66,325.15,574.09,324.96,574.54z M324.11,572.71c0,0.02,0.01,0.03,0.03,0.03h0.03
			c0.18-0.25,0.36-0.53,0.53-0.83c0.17-0.31,0.36-0.62,0.56-0.93c-0.05-0.14-0.1-0.23-0.17-0.29s-0.15-0.02-0.24,0.12
			c-0.2,0.32-0.35,0.64-0.44,0.97C324.33,572.1,324.23,572.41,324.11,572.71z"/>
		<path d="M331.97,582.91c-0.82,0.18-1.47,0.14-1.97-0.14c-0.5-0.27-0.87-0.67-1.1-1.21c-0.24-0.53-0.35-1.14-0.32-1.82
			c0.02-0.68,0.15-1.34,0.37-1.97c0.27-0.86,0.61-1.69,1.02-2.5c0.41-0.8,0.91-1.55,1.5-2.23c0.25-0.32,0.52-0.62,0.82-0.92
			c0.29-0.29,0.59-0.58,0.88-0.85c0.32-0.32,0.68-0.49,1.09-0.53s0.78,0.14,1.12,0.53c0.09,0.11,0.19,0.2,0.29,0.25
			s0.19,0.14,0.25,0.25c0.27,0.32,0.41,0.67,0.41,1.07s-0.11,0.8-0.34,1.21c-0.39,0.73-0.87,1.37-1.44,1.92s-1.2,1.08-1.85,1.58
			c-0.32,0.23-0.63,0.44-0.95,0.65s-0.63,0.42-0.95,0.65c-0.09,0.05-0.14,0.1-0.14,0.17c-0.02,0.25-0.05,0.49-0.07,0.73
			c-0.02,0.24-0.01,0.48,0.03,0.73c0.05,0.45,0.29,0.62,0.75,0.51c0.34-0.11,0.67-0.23,1-0.34c0.33-0.11,0.64-0.26,0.94-0.44
			c0.63-0.41,1.26-0.83,1.89-1.26c0.62-0.43,1.23-0.87,1.82-1.33c1.09-0.82,2.18-1.65,3.28-2.5c1.1-0.85,2.2-1.68,3.31-2.5
			c0.11-0.11,0.25-0.21,0.41-0.29s0.32-0.15,0.48-0.22c0.05-0.02,0.1-0.03,0.17-0.02c0.07,0.01,0.12,0.02,0.17,0.02
			c0,0.18-0.01,0.31-0.03,0.37c-0.05,0.09-0.14,0.23-0.27,0.41c-0.98,1.09-1.98,2.17-3.03,3.23c-0.57,0.59-1.15,1.17-1.75,1.75
			c-0.6,0.58-1.23,1.12-1.89,1.61c-0.59,0.43-1.18,0.85-1.77,1.26c-0.59,0.41-1.18,0.8-1.77,1.19c-0.36,0.23-0.74,0.41-1.14,0.56
			C332.78,582.66,332.38,582.79,331.97,582.91z M334.72,572.27c-0.7,0.73-1.35,1.47-1.94,2.24c-0.59,0.77-1.07,1.64-1.43,2.62
			c0.05-0.04,0.08-0.09,0.12-0.14c0.03-0.04,0.07-0.09,0.12-0.14c0.32-0.32,0.63-0.64,0.95-0.97c0.32-0.33,0.63-0.67,0.95-1.04
			c0.25-0.27,0.49-0.55,0.71-0.83s0.45-0.58,0.68-0.9C335.1,572.82,335.04,572.54,334.72,572.27z"/>
		<path d="M347.17,574c-0.18,0.05-0.34,0.09-0.48,0.14c-0.14,0.05-0.28,0.08-0.44,0.1c-0.52,0.11-0.97,0.06-1.34-0.15
			c-0.37-0.21-0.63-0.63-0.77-1.24c-0.04-0.16-0.04-0.35,0.02-0.58c0.06-0.23,0.13-0.46,0.22-0.71c0.09-0.25,0.19-0.49,0.29-0.71
			c0.1-0.23,0.19-0.41,0.25-0.54c0.09-0.2,0.22-0.34,0.37-0.42c0.16-0.08,0.32-0.11,0.48-0.08c0.16,0.02,0.29,0.1,0.39,0.22
			c0.1,0.12,0.14,0.29,0.12,0.49c0,0.02-0.08,0.19-0.25,0.49s-0.31,0.62-0.42,0.95c-0.11,0.33-0.14,0.59-0.09,0.78
			s0.3,0.18,0.73-0.05c0.38-0.2,0.77-0.42,1.16-0.65c0.39-0.23,0.76-0.45,1.12-0.68c0.2-0.16,0.35-0.42,0.44-0.78
			c0.16-0.27,0.36-0.49,0.61-0.65c0.25-0.16,0.52-0.2,0.82-0.14c0.43,0.09,0.71,0.32,0.85,0.68c0.11,0.36,0.01,0.68-0.31,0.95
			c-0.02,0.02-0.03,0.05-0.03,0.08s-0.02,0.06-0.07,0.08c-0.45,0.36-0.95,0.99-1.48,1.89c-0.53,0.9-1.02,1.86-1.46,2.89
			c-0.44,1.03-0.82,2.05-1.12,3.04c-0.31,1-0.47,1.78-0.49,2.35v0.44c0.11,0.48,0.36,0.68,0.75,0.61c0.39-0.07,0.86-0.31,1.43-0.71
			c0.57-0.41,1.19-0.95,1.87-1.61c0.68-0.67,1.37-1.37,2.07-2.09c0.7-0.72,1.39-1.43,2.07-2.12c0.68-0.69,1.29-1.27,1.84-1.75
			c0.41-0.36,0.83-0.7,1.26-1.02c0.43-0.32,0.85-0.62,1.26-0.92c0.07-0.07,0.15-0.1,0.24-0.1c0.04,0.14,0.06,0.23,0.03,0.27
			c-0.05,0.25-0.15,0.49-0.31,0.71c-0.34,0.41-0.67,0.82-1,1.22c-0.33,0.41-0.67,0.82-1.04,1.22c-1.13,1.25-2.26,2.5-3.38,3.76
			c-1.12,1.26-2.27,2.5-3.45,3.72c-0.52,0.48-1.08,0.87-1.67,1.17c-0.59,0.31-1.15,0.47-1.67,0.49c-0.52,0.02-0.98-0.13-1.38-0.46
			c-0.4-0.33-0.65-0.89-0.77-1.68c-0.04-1.59,0.19-3.08,0.71-4.47c0.52-1.39,1.13-2.74,1.84-4.03c0.02-0.07,0.05-0.13,0.07-0.19
			C347.09,574.17,347.12,574.09,347.17,574z"/>
		<path d="M396.84,584.06c0.18-0.2,0.37-0.4,0.56-0.58c0.19-0.18,0.36-0.39,0.49-0.61c0.73-1.02,1.47-2.04,2.23-3.06
			c0.76-1.02,1.53-2.04,2.3-3.06c1.36-1.95,2.75-3.86,4.17-5.75c1.42-1.88,2.93-3.71,4.54-5.47c0.36-0.41,0.74-0.81,1.12-1.21
			c0.39-0.4,0.78-0.79,1.19-1.17c0.95-0.86,1.9-1.72,2.84-2.58s1.91-1.71,2.91-2.55c1.16-1.04,2.38-1.97,3.67-2.79
			c1.29-0.82,2.58-1.62,3.88-2.41c2.11-1.2,4.32-2.07,6.63-2.62c0.95-0.23,1.91-0.39,2.87-0.49c0.96-0.1,1.93-0.12,2.91-0.05
			c0.5,0.05,0.95,0.11,1.36,0.2c0.11,0,0.24,0.09,0.38,0.27c-0.14,0.18-0.26,0.28-0.38,0.31c-0.27,0.04-0.55,0.08-0.83,0.12
			c-0.28,0.03-0.58,0.07-0.9,0.12c-1.29,0.14-2.54,0.37-3.74,0.7c-1.2,0.33-2.39,0.73-3.57,1.21c-2.27,1-4.41,2.15-6.43,3.45
			c-2.02,1.3-3.95,2.75-5.78,4.33c-0.75,0.68-1.5,1.37-2.24,2.06c-0.75,0.69-1.5,1.37-2.24,2.02c-1.16,1.09-2.23,2.22-3.23,3.4
			c-1,1.18-1.97,2.38-2.92,3.6c-1.04,1.38-2.07,2.77-3.08,4.17c-1.01,1.39-2,2.8-2.97,4.23c-0.52,0.73-1.06,1.44-1.62,2.16
			c-0.56,0.71-1.12,1.42-1.68,2.12c-0.2,0.27-0.44,0.52-0.7,0.73c-0.26,0.21-0.52,0.44-0.76,0.66c-0.14,0.14-0.28,0.25-0.44,0.34
			c-0.48,0.25-0.92,0.3-1.34,0.15c-0.42-0.15-0.73-0.46-0.94-0.94c-0.04-0.18-0.08-0.36-0.1-0.54c-0.02-0.18-0.04-0.36-0.07-0.54
			c-0.04-0.68-0.03-1.37,0.03-2.06c0.07-0.69,0.16-1.38,0.27-2.06c0.14-0.86,0.25-1.72,0.36-2.57c0.1-0.85,0.24-1.71,0.42-2.57
			c0.32-1.43,0.65-2.84,1-4.25c0.35-1.41,0.7-2.82,1.04-4.25c0-0.04,0.01-0.09,0.03-0.14c0.02-0.04,0.01-0.09-0.03-0.14
			c-0.09,0.14-0.17,0.24-0.24,0.31c-1.36,2.11-2.75,4.22-4.18,6.32c-1.11,1.68-2.22,3.35-3.33,5.01c-1.11,1.67-2.23,3.35-3.37,5.05
			c-0.95,1.45-1.95,2.87-2.99,4.27c-1.04,1.39-2.11,2.78-3.2,4.17c-0.41,0.52-0.85,1.01-1.33,1.48c-0.48,0.46-0.95,0.92-1.43,1.38
			c-0.29,0.27-0.61,0.5-0.94,0.7c-0.33,0.19-0.7,0.32-1.1,0.39c-0.52,0.09-0.99,0.01-1.39-0.24c-0.41-0.25-0.67-0.61-0.78-1.09
			c-0.16-0.45-0.23-0.92-0.22-1.39s0.07-0.95,0.19-1.43c0.43-2.06,1.01-4.07,1.73-6.02c0.72-1.95,1.55-3.89,2.48-5.81
			c0.66-1.36,1.34-2.7,2.04-4.03s1.43-2.65,2.18-3.96c0.73-1.29,1.41-2.6,2.06-3.93s1.22-2.67,1.72-4.03
			c0.11-0.27,0.2-0.56,0.25-0.87c0.06-0.31,0.11-0.59,0.15-0.87c0.07-0.5-0.18-0.74-0.75-0.71c-0.39,0.02-0.77,0.08-1.16,0.17
			c-0.39,0.09-0.75,0.23-1.09,0.41c-1.52,0.75-2.92,1.63-4.2,2.63c-1.28,1.01-2.49,2.09-3.62,3.25c-0.95,1.02-1.84,2.05-2.65,3.09
			c-0.82,1.04-1.56,2.14-2.24,3.3c-0.59,1.07-1.13,2.14-1.62,3.23c-0.49,1.09-0.94,2.19-1.34,3.3c-0.14,0.43-0.28,0.87-0.44,1.33
			c-0.16,0.45-0.32,0.9-0.48,1.33c-0.05,0.23-0.14,0.41-0.27,0.54c-0.07,0.09-0.16,0.16-0.27,0.22s-0.23,0.06-0.34,0.02
			c-0.09-0.05-0.17-0.11-0.24-0.2c-0.07-0.09-0.1-0.19-0.1-0.31c0-0.32,0.01-0.63,0.02-0.95c0.01-0.32,0.05-0.63,0.12-0.95
			c0.39-1.36,0.86-2.69,1.41-3.98c0.56-1.29,1.18-2.57,1.89-3.84c0.97-1.7,2.07-3.31,3.28-4.83c1.21-1.52,2.6-2.93,4.16-4.25
			c0.93-0.79,1.89-1.55,2.89-2.28c1-0.73,2.08-1.35,3.26-1.87c0.45-0.25,0.92-0.43,1.41-0.54s0.99-0.19,1.51-0.24
			c0.75-0.04,1.35,0.13,1.82,0.53c0.46,0.4,0.69,0.93,0.66,1.61c0,0.59-0.08,1.15-0.24,1.68s-0.34,1.07-0.54,1.62
			c-0.59,1.54-1.25,3.04-1.99,4.5s-1.51,2.94-2.33,4.44c-1.2,2.2-2.32,4.42-3.35,6.65s-1.91,4.52-2.63,6.85
			c-0.23,0.68-0.44,1.38-0.63,2.09c-0.19,0.71-0.38,1.42-0.56,2.12c-0.07,0.29-0.11,0.59-0.12,0.88c-0.01,0.29,0.03,0.62,0.12,0.99
			c0.18-0.11,0.35-0.22,0.51-0.32c0.16-0.1,0.31-0.21,0.44-0.32c0.63-0.52,1.21-1.09,1.73-1.7s1.02-1.24,1.5-1.87
			c1.7-2.2,3.32-4.43,4.86-6.7c1.54-2.27,3.08-4.57,4.62-6.9c0.93-1.43,1.85-2.86,2.77-4.3c0.92-1.44,1.88-2.87,2.87-4.3
			c1.02-1.43,2.03-2.87,3.03-4.33c1-1.46,2.11-2.86,3.33-4.2c0.38-0.38,0.78-0.77,1.17-1.16s0.79-0.77,1.17-1.16
			c0.09-0.07,0.19-0.14,0.31-0.22c0.11-0.08,0.24-0.14,0.37-0.19c0.27-0.11,0.52-0.03,0.75,0.24c0.16,0.18,0.15,0.43-0.03,0.75
			c-0.34,0.41-0.67,0.82-1,1.24c-0.33,0.42-0.65,0.83-0.97,1.24c-0.34,0.45-0.68,0.91-1.02,1.36c-0.34,0.45-0.68,0.9-1.02,1.33
			c-0.16,0.2-0.31,0.45-0.44,0.75c-0.38,0.86-0.67,1.74-0.87,2.63c-0.19,0.9-0.39,1.79-0.59,2.67c-0.32,1.34-0.61,2.67-0.88,4
			s-0.53,2.66-0.78,4c-0.11,0.59-0.2,1.18-0.26,1.79s-0.12,1.21-0.19,1.82c-0.07,0.63-0.13,1.26-0.19,1.89
			c-0.06,0.62-0.13,1.23-0.22,1.82v0.99C396.71,584.05,396.77,584.06,396.84,584.06z"/>
		<path d="M416.56,579.34c0.41-0.32,0.83-0.63,1.26-0.95c0.43-0.32,0.86-0.65,1.29-0.99c0.63-0.5,1.26-0.99,1.87-1.48
			c0.61-0.49,1.25-0.98,1.9-1.48c0.09-0.07,0.28-0.19,0.56-0.37s0.58-0.36,0.9-0.53c0.32-0.17,0.61-0.3,0.88-0.39s0.44-0.09,0.51,0
			c0.11,0.11,0.14,0.2,0.07,0.25s-0.12,0.11-0.17,0.15c-0.79,0.73-1.58,1.45-2.35,2.18c-0.77,0.73-1.56,1.43-2.38,2.11
			c-0.52,0.48-1.05,0.91-1.6,1.31s-1.11,0.81-1.7,1.24c-0.32,0.23-0.67,0.41-1.05,0.54c-0.45,0.18-0.84,0.16-1.16-0.05
			c-0.32-0.21-0.5-0.55-0.54-1c0-0.25,0.01-0.49,0.03-0.73s0.07-0.48,0.14-0.73c0.27-0.95,0.6-1.85,0.99-2.69
			c0.39-0.84,0.82-1.69,1.29-2.55c0.04-0.11,0.12-0.24,0.22-0.37c0.1-0.14,0.23-0.25,0.39-0.34c0.07-0.07,0.16-0.11,0.27-0.14
			c0.11-0.02,0.2-0.01,0.27,0.03c0.23,0.07,0.34,0.23,0.34,0.48c-0.02,0.18-0.06,0.37-0.1,0.58s-0.11,0.4-0.2,0.58
			c-0.25,0.68-0.52,1.35-0.82,2.02s-0.57,1.35-0.82,2.06c-0.09,0.18-0.17,0.37-0.22,0.58c-0.06,0.2-0.13,0.41-0.22,0.61
			C416.47,579.27,416.51,579.29,416.56,579.34z M419.65,570.36c-0.45-0.18-0.78-0.46-0.97-0.85c-0.19-0.38-0.2-0.8-0.02-1.26
			c0.18-0.43,0.46-0.62,0.85-0.58c0.34,0,0.57,0.23,0.68,0.68c0.05,0.11,0.07,0.29,0.08,0.53c0.01,0.24-0.01,0.46-0.05,0.68
			c-0.05,0.22-0.12,0.41-0.22,0.58C419.91,570.31,419.79,570.38,419.65,570.36z"/>
		<path d="M440.66,572.88c0.36-0.2,0.6-0.24,0.7-0.1s0.06,0.28-0.12,0.44c-0.7,0.57-1.41,1.12-2.12,1.67s-1.46,1.07-2.23,1.56
			c-0.79,0.57-1.62,0.99-2.48,1.26c-0.86,0.27-1.55,0.35-2.07,0.24c-0.59-0.11-0.99-0.31-1.21-0.58c-0.21-0.27-0.32-0.74-0.32-1.39
			v-2.04c-0.02-0.2-0.08-0.33-0.17-0.39c-0.09-0.06-0.26-0.04-0.51,0.05c-0.29,0.09-0.58,0.2-0.87,0.34
			c-0.28,0.14-0.61,0.34-0.99,0.61c-0.37,0.27-0.81,0.62-1.31,1.05c-0.5,0.43-1.11,0.99-1.84,1.67l-0.85,0.88l-0.44,0.2
			c-0.41,0.11-0.77,0.04-1.09-0.2c-0.2-0.23-0.28-0.5-0.24-0.82c-0.02-0.2,0.01-0.42,0.1-0.65l1.29-3.26
			c0.18-0.38,0.37-0.75,0.56-1.1c0.19-0.35,0.4-0.69,0.63-1c0.07-0.14,0.17-0.3,0.31-0.49c0.14-0.19,0.28-0.37,0.44-0.54
			s0.33-0.28,0.51-0.34s0.36-0.02,0.54,0.12c0.11,0.14,0.16,0.32,0.15,0.54s-0.04,0.41-0.08,0.54c-0.16,0.34-0.32,0.68-0.48,1.02
			s-0.32,0.69-0.48,1.05c-0.02,0.05-0.07,0.14-0.15,0.29c-0.08,0.15-0.17,0.29-0.26,0.44c-0.09,0.15-0.18,0.29-0.25,0.42
			c-0.08,0.14-0.13,0.23-0.15,0.27c0.29-0.29,0.68-0.62,1.16-0.99c0.48-0.36,0.99-0.7,1.53-1c0.54-0.31,1.09-0.56,1.63-0.76
			c0.54-0.2,1.04-0.31,1.48-0.31s0.8,0.14,1.09,0.41c0.28,0.27,0.44,0.73,0.46,1.36c0.05,0.39,0.07,0.75,0.08,1.1
			c0.01,0.35,0.02,0.71,0.02,1.07v0.27c0.09,0.39,0.34,0.56,0.75,0.51c0.41-0.05,0.86-0.17,1.36-0.37c1.04-0.43,2.05-0.92,3.03-1.46
			C438.75,573.93,439.71,573.4,440.66,572.88z"/>
		<path d="M440.83,558.36c-0.39,0.09-0.82,0.18-1.29,0.27c-0.48,0.09-0.91,0.19-1.29,0.31l-2.55,0.68
			c-0.45,0.11-0.73,0.09-0.82-0.07c-0.11-0.25,0.05-0.49,0.48-0.71c0.91-0.43,1.86-0.8,2.86-1.12c0.54-0.18,1.13-0.35,1.77-0.51
			c0.63-0.16,1.28-0.3,1.94-0.42c0.66-0.12,1.3-0.23,1.94-0.32c0.63-0.09,1.21-0.17,1.73-0.24c0.29-0.09,0.52-0.25,0.68-0.48
			c0.52-1.09,1.04-2.15,1.56-3.2c0.52-1.04,1.05-2.11,1.6-3.2l0.44-0.68c0.09-0.09,0.22-0.14,0.37-0.15s0.31,0.01,0.44,0.07
			c0.14,0.06,0.24,0.14,0.32,0.25c0.08,0.11,0.08,0.24,0.02,0.37c-0.16,0.43-0.34,0.86-0.54,1.29c-0.2,0.43-0.4,0.87-0.58,1.33
			c-0.39,0.86-0.74,1.61-1.05,2.24c-0.32,0.63-0.61,1.26-0.88,1.87l0.54-0.07c2.06-0.2,4.04-0.37,5.92-0.51s3.85-0.2,5.92-0.2
			c0.18,0,0.35,0.01,0.49,0.02c0.15,0.01,0.31,0.03,0.49,0.05c0.04,0,0.08,0.02,0.12,0.07c0.03,0.05,0.07,0.09,0.12,0.14
			c-0.05,0.02-0.08,0.05-0.12,0.08s-0.07,0.05-0.12,0.05l-2.07,0.24l-5.34,0.61c-1.13,0.11-2.18,0.25-3.14,0.41
			c-0.96,0.16-2.02,0.33-3.18,0.51c-0.07,0-0.14,0.03-0.2,0.1c-0.07,0.07-0.12,0.15-0.17,0.24c-0.95,2.45-1.85,4.84-2.7,7.17
			c-0.85,2.33-1.63,4.65-2.33,6.94c-0.7,2.29-1.31,4.57-1.84,6.83s-0.93,4.57-1.22,6.9c-0.11,0.79-0.23,1.69-0.34,2.7
			c-0.11,1.01-0.26,2.18-0.44,3.52c0,0.16-0.01,0.28-0.03,0.37c-0.02,0.09-0.05,0.19-0.07,0.31c-0.05,0.05-0.08,0.08-0.1,0.12
			c-0.02,0.03-0.05,0.08-0.07,0.15c-0.05-0.07-0.08-0.12-0.1-0.15c-0.02-0.03-0.04-0.07-0.04-0.12c-0.11-0.45-0.21-0.91-0.29-1.38
			c-0.08-0.46-0.14-0.95-0.19-1.44c-0.11-1.72-0.09-3.38,0.07-4.96c0.16-1.59,0.37-3.24,0.65-4.96c0.29-1.93,0.7-3.83,1.21-5.71
			c0.51-1.88,1.07-3.73,1.68-5.54c0.61-1.81,1.27-3.59,1.97-5.32c0.7-1.73,1.41-3.41,2.11-5.02c0.02-0.04,0.04-0.11,0.07-0.19
			c0.02-0.08,0.07-0.18,0.13-0.29c-0.79,0.09-1.6,0.23-2.41,0.41c-0.36,0.04-0.72,0.1-1.07,0.15
			C441.52,558.23,441.17,558.29,440.83,558.36z"/>
		<path d="M448.38,582.91c-0.82,0.18-1.47,0.14-1.97-0.14c-0.5-0.27-0.87-0.67-1.11-1.21s-0.35-1.14-0.32-1.82s0.15-1.34,0.37-1.97
			c0.27-0.86,0.61-1.69,1.02-2.5c0.41-0.8,0.91-1.55,1.5-2.23c0.25-0.32,0.52-0.62,0.82-0.92c0.29-0.29,0.59-0.58,0.88-0.85
			c0.32-0.32,0.68-0.49,1.09-0.53s0.78,0.14,1.12,0.53c0.09,0.11,0.19,0.2,0.29,0.25c0.1,0.06,0.19,0.14,0.26,0.25
			c0.27,0.32,0.41,0.67,0.41,1.07s-0.11,0.8-0.34,1.21c-0.39,0.73-0.87,1.37-1.44,1.92s-1.2,1.08-1.85,1.58
			c-0.32,0.23-0.63,0.44-0.95,0.65s-0.63,0.42-0.95,0.65c-0.09,0.05-0.14,0.1-0.14,0.17c-0.02,0.25-0.05,0.49-0.07,0.73
			c-0.02,0.24-0.01,0.48,0.03,0.73c0.04,0.45,0.29,0.62,0.75,0.51c0.34-0.11,0.67-0.23,1-0.34c0.33-0.11,0.64-0.26,0.93-0.44
			c0.63-0.41,1.26-0.83,1.89-1.26c0.62-0.43,1.23-0.87,1.82-1.33c1.09-0.82,2.18-1.65,3.28-2.5c1.1-0.85,2.2-1.68,3.31-2.5
			c0.11-0.11,0.25-0.21,0.41-0.29c0.16-0.08,0.32-0.15,0.48-0.22c0.05-0.02,0.1-0.03,0.17-0.02c0.07,0.01,0.12,0.02,0.17,0.02
			c0,0.18-0.01,0.31-0.04,0.37c-0.04,0.09-0.14,0.23-0.27,0.41c-0.97,1.09-1.98,2.17-3.03,3.23c-0.57,0.59-1.15,1.17-1.75,1.75
			c-0.6,0.58-1.23,1.12-1.89,1.61c-0.59,0.43-1.18,0.85-1.77,1.26c-0.59,0.41-1.18,0.8-1.77,1.19c-0.36,0.23-0.74,0.41-1.14,0.56
			C449.19,582.66,448.79,582.79,448.38,582.91z M451.14,572.27c-0.7,0.73-1.35,1.47-1.94,2.24c-0.59,0.77-1.07,1.64-1.43,2.62
			c0.04-0.04,0.08-0.09,0.12-0.14c0.03-0.04,0.07-0.09,0.12-0.14c0.32-0.32,0.63-0.64,0.95-0.97c0.32-0.33,0.63-0.67,0.95-1.04
			c0.25-0.27,0.49-0.55,0.71-0.83s0.45-0.58,0.68-0.9C451.51,572.82,451.45,572.54,451.14,572.27z"/>
		<path d="M463.58,574c-0.18,0.05-0.34,0.09-0.48,0.14c-0.14,0.05-0.28,0.08-0.44,0.1c-0.52,0.11-0.97,0.06-1.34-0.15
			c-0.38-0.21-0.63-0.63-0.77-1.24c-0.04-0.16-0.04-0.35,0.02-0.58s0.13-0.46,0.22-0.71c0.09-0.25,0.19-0.49,0.29-0.71
			c0.1-0.23,0.19-0.41,0.25-0.54c0.09-0.2,0.22-0.34,0.37-0.42c0.16-0.08,0.32-0.11,0.48-0.08c0.16,0.02,0.29,0.1,0.39,0.22
			c0.1,0.12,0.14,0.29,0.12,0.49c0,0.02-0.09,0.19-0.26,0.49s-0.31,0.62-0.42,0.95c-0.11,0.33-0.14,0.59-0.09,0.78
			s0.3,0.18,0.73-0.05c0.38-0.2,0.77-0.42,1.16-0.65c0.39-0.23,0.76-0.45,1.12-0.68c0.2-0.16,0.35-0.42,0.44-0.78
			c0.16-0.27,0.36-0.49,0.61-0.65c0.25-0.16,0.52-0.2,0.82-0.14c0.43,0.09,0.71,0.32,0.85,0.68c0.11,0.36,0.01,0.68-0.3,0.95
			c-0.02,0.02-0.04,0.05-0.04,0.08s-0.02,0.06-0.07,0.08c-0.45,0.36-0.95,0.99-1.48,1.89c-0.53,0.9-1.02,1.86-1.46,2.89
			c-0.44,1.03-0.82,2.05-1.12,3.04c-0.31,1-0.47,1.78-0.49,2.35v0.44c0.11,0.48,0.36,0.68,0.75,0.61c0.38-0.07,0.86-0.31,1.43-0.71
			c0.57-0.41,1.19-0.95,1.87-1.61c0.68-0.67,1.37-1.37,2.07-2.09c0.7-0.72,1.39-1.43,2.07-2.12c0.68-0.69,1.29-1.27,1.84-1.75
			c0.41-0.36,0.83-0.7,1.26-1.02c0.43-0.32,0.85-0.62,1.26-0.92c0.07-0.07,0.15-0.1,0.24-0.1c0.04,0.14,0.06,0.23,0.04,0.27
			c-0.05,0.25-0.15,0.49-0.31,0.71c-0.34,0.41-0.68,0.82-1,1.22c-0.33,0.41-0.67,0.82-1.04,1.22c-1.13,1.25-2.26,2.5-3.38,3.76
			c-1.12,1.26-2.27,2.5-3.45,3.72c-0.52,0.48-1.08,0.87-1.67,1.17c-0.59,0.31-1.15,0.47-1.67,0.49c-0.52,0.02-0.98-0.13-1.38-0.46
			c-0.4-0.33-0.65-0.89-0.76-1.68c-0.04-1.59,0.19-3.08,0.71-4.47c0.52-1.39,1.13-2.74,1.84-4.03c0.02-0.07,0.05-0.13,0.07-0.19
			C463.5,574.17,463.53,574.09,463.58,574z"/>
	</g>
	<g>
		<path d="M177.13,425.25l6.93,54.85h-23.82l-1.71-13.19h-32.27l11.2,3.42l-8.54,9.78h-28.09l48.69-54.85H177.13z M157.39,457.42
			l-1.04-8.64l-7.59,8.64H157.39z"/>
		<path d="M197.63,425.44h57.7l-7.31,18.51h-17.94l-14.24,36.35h-23.82l12.81-32.65l13.29-3.7h-27.81L197.63,425.44z"/>
	</g>
	<g>
		<path d="M265.95,425.83h23.82l-8.92,22.68h17.46l8.92-22.68h23.82l-21.64,54.85H285.6l8.92-22.68h-29.9l11.2,3.32l-7.69,19.36
			h-23.73L265.95,425.83z"/>
		<path d="M378.51,462.17l-7.21,18.51h-50.01l21.45-54.85h23.82l-14.24,36.35H378.51z"/>
		<path d="M414.76,458c-0.19,0.57-0.4,1.11-0.62,1.61c-0.22,0.51-0.4,0.95-0.52,1.33c-0.19,0.44-0.35,0.85-0.47,1.23h26.19
			l-7.21,18.51h-50.01l21.45-54.85h50.01l-7.21,18.51h-26.38c0,0.06-0.08,0.28-0.24,0.66c-0.16,0.38-0.33,0.81-0.52,1.28
			c-0.19,0.47-0.36,0.92-0.52,1.33c-0.16,0.41-0.27,0.71-0.33,0.9h12.91l-3.79,9.49H414.76z"/>
		<path d="M463.64,425.83h57.7l-7.31,18.51h-17.94l-14.24,36.35h-23.82l12.81-32.65l13.29-3.7h-27.81L463.64,425.83z"/>
		<path d="M555.98,425.83l-21.64,54.85h-23.73l21.54-54.85H555.98z"/>
		<path d="M569.36,425.83h23.82l-8.07,20.4l22.21-20.4h23.82l-30.18,27.81l12.43,27.05h-23.82l-5.31-11.67l-12.72,11.67h-23.73
			L569.36,425.83z"/>
	</g>
	<path d="M247.34,224.57c5.34,2.79,10.65,3.29,16.25,0.96c7.51-3.12,15.04-6.18,22.56-9.27c1.11-2.42,2.75-4.71,3.84-7.17
		c-9.77,4.3-19.61,8.46-29.56,12.33c-3,1.17-6.2,0.32-9.37-3.06c13.72-0.62,24.04-8.81,36.12-11.96c1.81-0.47,3.38-1.9,5.16-3.51
		c0.94-2.67,1.8-5.36,2.62-8.07c-5.16,0.22-9.06-0.14-10.52-1.32c3.81-0.75,7.61-1.5,11.42-2.24c0.24-1.18,0.46-2.37,0.69-3.55
		c-0.71-0.49-1.43-0.96-2.18-1.36c-5.39-2.85-10.83-2.39-16.28-0.1c-7.47,3.14-14.88,6.44-22.45,9.31
		c-8.01,3.03-14.05,7.5-14.48,17.05c-0.55-0.1-1.1-0.21-1.64-0.31c0.39-2.97-0.01-6.38,1.35-8.81c1.97-3.54,4.61-7.59,8.02-9.29
		c9.68-4.83,19.87-8.65,29.92-12.69c2.08-0.84,4.46-0.92,6.72-1.35c0.08,0.55,0.15,0.76,0.11,0.78c-0.42,0.22-0.86,0.41-1.29,0.74
		c5.66-1.36,9.48,0.93,12.43,4.91c0.14-0.67,0.3-1.34,0.47-2.01c-5.4-5.05-12.26-6.7-19.37-3.91c-9.7,3.82-19.35,7.8-28.87,12.03
		c-7.09,3.15-10.79,9.15-10.4,16.74c0.18,3.5-0.24,5.88-2.9,7.88c0.01-0.02,0.03-0.04,0.04-0.06c-5.33,3.36-10.71,6.64-15.95,10.14
		c-1.93,1.28-3.31,1.51-5.49,0.27c-7.58-4.3-15.67-3.13-21.93,3c-7.07,6.92-14.07,13.92-20.97,21.01
		c-6.43,6.61-7.45,14.15-2.93,22.22c1.16,2.07,0.85,3.4-0.33,5.17c-2.43,3.63-4.65,7.4-6.95,11.12c0.02-0.02,0.05-0.03,0.07-0.04
		c-1.54,2.02-2.91,4.2-4.71,5.95c-1.07,1.05-2.92,2.05-4.3,1.91c-8.21-0.84-15.6,2.81-18.88,10.28
		c-4.26,9.67-8.32,19.44-12.15,29.29c-3.01,7.74-0.72,15.53,5.88,20.63c1.98,1.53,2.37,2.91,1.84,5.22
		c-1.34,5.89-2.72,11.79-3.51,17.76c-0.48,3.66-1.83,5.53-5.5,6.33c-2.03,0.44-3.98,1.86-5.64,3.23
		c-6.21,5.13-8.55,15.98-5.38,25.57c0.32-4.46,0.17-8.93,0.35-13.38c0.3-7.58,7.13-14.66,14.57-14.48
		c-13.03,6.41-10.39,17.63-10.26,28.48c1.72-0.09,3.01-0.17,4.15-0.23c1.79-6.05-1.9-12.83,3.89-18.83
		c-0.19,4.23-0.31,7.62,3.8,8.48c4.18,0.87,5.65-2.17,6.77-5.55c0.39,0.07,0.78,0.14,1.18,0.21c0.24,5,0.47,10,0.71,15
		c0.05-6.56,2.74-13.27-0.83-19.66c9.25,4.53,4.35,13.58,6.43,20.58c1.38-0.08,2.68-0.16,4.28-0.25c0-4.26,0-8.23,0-12.2
		c-0.01-5.88-2.22-10.82-7-14.21c-2.26-1.61-2.49-3.26-2-5.59c1.41-6.72,2.64-13.47,4.19-20.15c0.26-1.13,1.62-2.54,2.74-2.85
		c6.64-1.85,10.9-6.09,13.44-12.33c3.58-8.77,7.17-17.54,10.81-26.29c2.33-5.59,2.14-11.07-1.06-16.17
		c-1.38-2.19-0.95-3.66,0.32-5.52c3.73-5.44,7.41-10.91,10.99-16.45c1.23-1.9,2.43-2.86,4.97-2.5c6.44,0.93,11.78-1.39,16.31-6.06
		c6.13-6.31,12.35-12.53,18.7-18.62c4.99-4.78,7.49-10.31,6.85-17.33c-0.13-1.38,0.84-3.43,1.97-4.24
		c5.69-4.08,11.53-7.97,17.5-11.64C243.84,223.85,246.09,223.91,247.34,224.57z M171.59,253.05c7.12-7.45,14.41-14.75,21.86-21.86
		c6.15-5.87,14.77-6.38,21.02-1.23c-9.25-2.94-15.68,1.39-21.58,7.65c-5.47,5.8-11.14,11.41-16.85,16.96
		c-5.4,5.25-7.68,11.24-5.24,18.64c0.08,0.24,0.06,0.52,0.03,0.78c-0.01,0.1-0.19,0.18-0.28,0.27
		C165.49,268.71,165.78,259.11,171.59,253.05z M128.67,358.33c-1.93-2.3-4.3-4.36-5.71-6.94c-2.24-4.1-2.71-8.61-0.86-13.11
		c4.07-9.9,7.95-19.88,12.29-29.65c3.27-7.35,13.4-11.49,18.87-8.46c-0.85,0.28-1.4,0.56-1.99,0.63
		c-6.89,0.78-11.16,4.88-13.72,10.98c-3.41,8.1-6.54,16.31-10.08,24.35c-3.36,7.64-3.87,14.81,2.36,21.44
		C129.45,357.81,129.06,358.07,128.67,358.33z M123.62,403.37c-0.42-0.11-0.84-0.22-1.27-0.33c4.02-19.86,8.04-39.73,12.05-59.59
		C139.12,349.94,129.68,397.68,123.62,403.37z M138.35,341.44c-4.27-0.76-5.44,2.67-6.85,6.61c-2.46-6.61,10.36-37.27,16.11-39.34
		c-1.09,3.18-2.98,6.31,0.72,8.85c3.77,2.58,6-0.33,8.54-2.51c0.43,4.25-11.06,31.87-14.41,34.63
		C142.44,346.15,142.92,342.25,138.35,341.44z M162.04,319.88c-3.92,10.08-8.07,20.07-12.44,29.96c-1.37,3.11-4.23,4.8-8.97,4.44
		c7.44-7.16,9-16.45,12.93-24.59c1.9-3.93,4.15-7.73,5.61-11.81c0.65-1.82-0.24-4.19-0.44-6.44
		C161.89,312.9,163.47,316.22,162.04,319.88z M146.89,314.4c5.04-8.49,9.72-16.38,14.4-24.26c0.42-0.27,0.93-0.47,1.19-0.85
		c5.56-7.93,11.07-15.89,16.62-23.83c0.63-0.9,1.41-1.71,2.51-3.02C182.39,270.91,155.31,311.49,146.89,314.4z M176.65,265.68
		c-0.83-5.95,22.98-30.07,29.54-29.92c-2.1,2.68-5.31,5.04-2.49,8.79c2.51,3.33,5.49,1.96,8.89,1.1
		c-8.01,9.55-16.76,18.26-26.35,26.23c1.36-3.37,2.6-6.42-0.6-8.95C181.79,259.89,179.18,262.86,176.65,265.68z M214.5,252.61
		c-6.91,7.07-13.93,14.03-20.99,20.94c-3.24,3.17-5.47,3.54-9.97,2.27c5.87-4.92,11.99-9.67,17.66-14.9
		c5.75-5.3,11.8-10.49,14.62-19.53C218.24,246.37,217.26,249.78,214.5,252.61z M203.7,240.47c1-0.89,1.68-1.64,2.48-2.19
		c9.45-6.5,18.92-12.96,28.36-19.46c0.48-0.33,0.77-0.93,1.14-1.44c5.03-2.9,10.07-5.79,15.1-8.7c1.24-0.72,2.48-1.49,4.17-2.52
		c-1.57-0.26-3.36-0.35-4.97-0.7c1.61-4.22,32.13-16.95,38.13-14.8c-2.98,1.76-7.23,3.17-5.34,7.25c1.03,2.24,4.37,3.41,7.19,5.43
		c-10.52,4.99-22.03,9.43-33.85,13.52c1.9-3.17,5.63-5.99,2.15-9.37c-0.75-0.72-1.86-1.07-3.11-1.3
		C252.49,214.57,211.19,242.01,203.7,240.47z"/>
	<path d="M261.21,206c-0.09,0.06-0.17,0.1-0.26,0.16c0.07,0.01,0.13,0.02,0.2,0.04C261.17,206.12,261.2,206.06,261.21,206z"/>
	<path d="M624.48,404.42c-0.2-8.47-5.45-15.41-13.65-17.47c-2.39-0.6-3.09-1.78-3.48-3.79c-1.3-6.74-2.78-13.44-3.86-20.21
		c-0.22-1.36,0.61-3.46,1.68-4.37c6.94-5.9,9.04-13.86,5.57-22.22c-3.68-8.88-7.36-17.76-10.98-26.67
		c-3.31-8.15-10.97-12.57-19.71-11.64c-1.36,0.14-3.42-0.83-4.23-1.95c-3.92-5.46-7.38-11.26-11.32-16.71
		c-1.51-2.08-1.7-3.82-0.68-5.95c-0.02,0-0.05,0.01-0.07,0.01c4.36-5.7,3.89-14.61-1.69-20.52c-7.54-7.98-15.25-15.84-23.29-23.3
		c-5.52-5.11-12.43-5.99-19.17-2.64c-3.03,1.5-5.39,1.96-8.16,0.16c4.57,3.53,9.14,7.07,13.72,10.59c1.21,0.93,2.47,1.79,4.16,3
		c-7.92,1.54-49.51-26.21-51.81-34.75c4.41,2.86,8.11,5.34,11.89,7.69c7.37,4.58,14.79,9.08,22.18,13.61
		c-5.25-3.7-10.6-7.26-15.68-11.18c-1.2-0.92-2.23-3.09-2.08-4.56c0.77-7.49-2.55-15.11-9.35-18.2c-10.36-4.7-20.9-9.08-31.56-13.03
		c-1.51-0.56-3.05-0.92-4.58-1.05c0.18,0.49,0.38,0.97,0.58,1.45c4.35,0.41,8.6,2.11,12.87,4.1c6.95,3.23,14.23,5.76,21.22,8.92
		c7.21,3.26,11.06,11.59,8.96,18.54c-0.23-0.06-0.66-0.11-0.67-0.19c-0.72-8.45-5.8-13.13-13.33-16.01
		c-7.17-2.75-14.2-5.86-21.3-8.79c-2.07-0.85-3.83-1.52-5.43-2.02c0.05,0.08,0.09,0.16,0.14,0.24c0.92,1.46,0.85,3.52,1.11,5.43
		c8.8,3.44,17.52,7.07,26.18,10.85c1.79,0.78,3.12,2.62,4.43,4.47c-3.5-0.35-7.55-2.28-9.01,2.01c-0.79,2.32,0.82,5.45,1.51,9.05
		c-5.3-2.2-10.69-4.43-16.12-6.68c0.38,0.67,0.73,1.33,1.07,2.01c4.51,1.96,9.03,3.88,13.59,5.72c1.79,0.72,4.12,0.1,7,0.1
		c-3.18,3.44-6.54,4.08-10.09,2.67c-2.77-1.1-5.53-2.21-8.29-3.33c0.72,1.98,1.31,3.99,1.78,6.04c1.22,0.51,2.44,1.02,3.67,1.53
		c5.83,2.44,11.42,2.14,17.04-0.88c1.2-0.65,3.45-0.59,4.6,0.12c5.85,3.6,11.58,7.4,17.14,11.44c1.22,0.89,2.27,3.06,2.16,4.56
		c-0.49,6.67,1.65,12.04,6.44,16.66c6.34,6.1,12.56,12.32,18.64,18.67c4.81,5.03,10.4,7.35,17.38,6.65
		c1.24-0.13,3.13,0.79,3.86,1.83c4.14,5.82,8.1,11.77,11.91,17.81c0.61,0.97,0.68,2.91,0.12,3.9c-3.42,5.97-3.47,11.91-0.78,18.15
		c3.48,8.07,6.86,16.19,10.05,24.37c2.57,6.59,6.83,11.1,13.78,13.05c1.13,0.32,2.49,1.73,2.75,2.87
		c1.55,6.82,2.91,13.69,4.08,20.58c0.23,1.36-0.19,3.59-1.13,4.27c-10,7.2-7.68,17.48-7.65,27.58c1.8-0.14,3.09-0.24,4.18-0.33
		c1.77-7.14-2.71-15.73,6.02-20.63c-0.56,6.81-1.09,13.29-1.63,19.76c0.61,0.03,1.21,0.05,1.82,0.08c0-4.91,0-9.81,0-14.72
		c0.36-0.08,0.72-0.17,1.07-0.25c1.31,3.28,2.63,6.91,6.94,5.97c4.36-0.94,4.15-4.72,3.67-9.2c6.09,6.12,1.99,13.16,4.07,19.07
		c0.64,0.05,1.32,0.17,1.99,0.16c0.64-0.01,1.28-0.15,2.23-0.27c-0.13-10.64,2.66-21.89-10.66-28.27
		c8.16,0.25,14.57,7.07,14.88,14.81c0.15,3.71,0.01,7.42,0.08,11.13c0.01,0.74,0.38,1.46,0.58,2.2
		C624.49,412.38,624.57,408.39,624.48,404.42z M594.07,303.78c3.08,4.55,5.71,9.48,7.95,14.5c3.23,7.24,6.3,14.59,8.73,22.13
		c2.13,6.61-1.23,13.65-7.79,17.37c6.95-8.09,4.62-16.26,0.82-24.61c-2.84-6.23-5.44-12.58-7.88-18.97
		c-2.96-7.76-7.62-13.27-16.79-13.67C582.91,297.84,591.12,299.41,594.07,303.78z M517.92,229.89c4.23-4.65,13.45-5.04,19.2-0.07
		c6.21,5.37,11.57,11.73,17.79,17.08c8.4,7.24,12.96,15.36,8.81,26.55c-0.59,0.12-1.19,0.24-2.2,0.44
		c3.27-9.44-1.1-15.98-7.54-21.92c-4.73-4.37-9.21-9.02-13.72-13.63C531.6,229.51,529.83,228.81,517.92,229.89z M539.96,274.42
		c-7.69-7.39-15.22-14.96-22.62-22.64c-2.41-2.51-2.9-5.75-1.27-9.32c3.58,4.77,7,9.34,10.43,13.91c4.07,4.06,8.15,8.12,12.22,12.18
		c3.42,2.27,6.84,4.54,10.5,6.98C545.78,277.52,542.5,276.87,539.96,274.42z M547.53,262.93c-3.57,2.4-2.25,5.62-0.79,8.85
		c-3.81-1.09-24.97-21.97-26.98-26.59c3.44,1.16,6.94,3.49,9.5-0.66c2.41-3.9-0.7-6.19-3.52-8.99c7.25,0.43,30.54,24.06,30.22,30.07
		C553.49,263.24,551.13,260.52,547.53,262.93z M551.87,268.85c-0.78-1.51-0.95-3.33-1.4-5.01c0.52-0.25,1.05-0.5,1.57-0.76
		c11.24,16.85,22.49,33.7,33.73,50.54c-0.34,0.37-0.68,0.75-1.02,1.12c-1.21-0.77-2.69-1.3-3.58-2.33
		C569.63,299.09,559.98,284.48,551.87,268.85z M582.53,349.4c-4.18-9.67-8.18-19.41-12.05-29.2c-1.3-3.29-0.26-6.37,1.88-8.79
		c2.75,7.54,4.98,15.04,8.2,22.1c3.14,6.9,3.95,15.05,10.6,20.28C587.3,354.63,584.19,353.24,582.53,349.4z M593.8,342.23
		c-2.21,1.03-3.33,4.39-4.93,6.68c-2.14-1.68-13.75-29.49-13.43-33.89c2.48,2.27,4.69,5.38,8.43,3.18c4.03-2.37,2.53-5.92,0.69-9.67
		c6.15,2.64,18.75,33.22,16.5,39.09C599.41,344.44,597.85,340.34,593.8,342.23z M610.1,403.5c-7.19-4.33-16.83-53.61-11.98-60.67
		C602.25,363.72,606.17,383.61,610.1,403.5z"/>
	<g>
		<path d="M238.08,325.54c7.53-4.09,8.79-12.61,17.85-10.66c-4.08,3.9-7.54,7.21-12.01,11.49c9.01,0.99,10.77-5.45,14.63-9.67
			c4.4,3.47,7.41,2.85,10.45-2.57c3.44-6.13,9.27-10.99,12.34-17.24c2.16-4.4,1.4-10.22,1.99-15.4c1.6-14.1,3.15-28.21,4.87-42.3
			c0.88-7.23,1.7-14.5,3.3-21.58c0.83-3.64,3.57-6.8,5.01-10.36c1.86-4.61,3.43-9.35,4.86-14.12c0.96-3.24,1.31-6.65,2.19-9.92
			c1.88-7.02,4.52-13.89,5.77-21.01c2.1-12.04,7.87-17.46,19.52-21.96c10.11-3.9,20.13-9.16,28.36-18.98
			c-3.23-0.73-4.83-1.09-6.7-1.51c0.25-0.58,0.61-1.1,0.68-1.65c0.32-2.7,1.64-5.91,0.65-8.02c-4.05-8.61,1.19-15.28,3.88-22.47
			c3.08-8.22,11.53-13.58,23.47-12.14c6.76,0.82,13.37,7.8,15.41,15.51c1.16,4.38,3.35,8.49,5.19,13.01
			c-4.86,4.37-5.01,9.69-1.85,15.45c-5.8,2.44-3.96,6.18-0.36,8.29c8.19,4.81,16.76,9,25.36,13.07c8.14,3.84,14.47,9.21,15.83,18.47
			c1.27,8.64,2.09,17.24,6.93,24.91c1.11,1.77,0.78,4.4,1.31,6.58c1.18,4.8,1.32,10.41,4,14.17c5.82,8.15,8.42,16.97,9.25,26.64
			c1.62,18.94,3.11,37.89,4.97,56.8c0.58,5.85-2.31,8.42-7.17,9.96c-0.43,0.14-0.94,0.06-1.37,0.21
			c-13.58,4.67-16.59,3.01-18.56-11.04c-0.33-2.34,0.66-5.66,2.27-7.34c7.13-7.46,8.79-15.06,2.74-23.99
			c-2.8-4.14-5.09-8.66-7.2-13.21c-1.99-4.29-5.34-9.09-4.76-13.2c1.59-11.34-5.21-18.38-10.85-26.87
			c-4.87,6.77-6.44,13.92-5.51,21.46c1.56,12.67,3.49,25.3,5.45,37.93c1.33,8.55,3.03,17.04,4.45,25.58
			c1.23,7.37,2.29,14.76,3.56,23.03c-35.13,0.39-70.51-5.88-106.68,1.06c2.71-17.79,5.41-35.55,8.11-53.3
			c-0.64-0.4-1.28-0.8-1.93-1.2c-3.61,4.33-6.74,9.22-10.95,12.86c-7.97,6.9-6.5,18.19-12.95,25.71c-3.38,3.93-5.69,7.68-12.25,8.24
			c-4.04,0.35-8.32,6.15-11.19,10.38c-9.37,13.82-11.62,8.95,1.04,21.79c1.12,1.14,2.33,2.19,4.13,3.88
			c-1.74,2.18-3.37,4.28-5.06,6.33c-1.75,2.13-3.56,4.22-6.25,7.39C262.27,344.54,250.97,335.67,238.08,325.54z M350.52,241.53
			c0.11-0.58,0.22-1.16,0.33-1.74c6.32,0.57,12.66,1.8,18.94,1.52c6.15-0.28,12.23-2.1,18.33-3.25c-0.14-0.63-0.28-1.27-0.42-1.9
			c-9.03-1.32-18.05-2.65-28.89-4.24c9.37-3.79,16.54-6.7,23.71-9.6c-0.26-0.7-0.52-1.4-0.78-2.1c-10.23-0.98-20.47-1.96-31.99-3.06
			c13.96-7.83,27.95-12.5,40.08-23.61c-10.76-1.09-19.8-2-28.64-2.9c14.02-7.26,27.77-14.36,41.48-21.55
			c0.84-0.44,2.03-1.92,1.83-2.41c-1.91-4.68-4.08-9.25-6.18-13.86c-0.82,0.33-1.64,0.65-2.46,0.98c0.6,4.19,1.19,8.38,1.95,13.73
			c-15.07,0-30.06,0-46.66,0c2.42-13.26,4.56-24.94,6.69-36.63c-0.77-0.25-1.53-0.5-2.3-0.75c-1.23,2.15-2.82,4.16-3.65,6.45
			c-8.23,22.86-10.3,46.98-14.1,70.73c-1.34,8.35-0.7,17.05-2.35,25.3c-3.09,15.41-5.76,30.77-1.65,46.25
			c1.89,7.13,5.32,13.86,8.05,20.77c0.82-0.25,1.64-0.5,2.47-0.76c-0.92-7.27-1.84-14.53-2.77-21.8c0.39-0.01,0.77-0.02,1.16-0.02
			c2.07,2.81,4.14,5.62,6.21,8.42c0.63-0.31,1.27-0.62,1.9-0.92c-0.99-3.24-1.85-6.52-3-9.69c-1.16-3.22-2.6-6.34-4.3-10.4
			c21.06,10.12,29.46,12.54,36.69,10.49c-10.31-6.52-20.32-12.85-30.33-19.18c0.25-0.41,0.5-0.81,0.75-1.22
			c8.25,0.57,16.51,1.15,24.76,1.72c0.2-0.79,0.39-1.59,0.59-2.38c-4.17-1.64-8.47-3.02-12.48-5
			C359.04,246.76,354.84,244.03,350.52,241.53z M300.85,273.52c3.17-1.96,4.74-2.48,5.65-3.56c5.86-7,11.09-14.59,17.43-21.11
			c11.3-11.61,10.2-35.77,4.45-46.52c-10.26,12.76-9.93,13.01-11.09,27.28c-0.4,4.95-3.19,9.82-5.4,14.48
			c-2.82,5.96-6.5,11.53-9.13,17.56C301.44,264.66,301.62,268.33,300.85,273.52z M321.37,173.44c-7.41,6.79-13.07,12.52-16.06,20.42
			c-1.19,3.13-1.75,6.54-3.19,9.52c-4.15,8.56-10.45,16.31-9.01,26.79c0.2,1.46-0.94,3.06-1.14,4.63
			c-0.96,7.66-1.82,15.34-2.71,23.01c1,0.2,2,0.4,3,0.61c3.67-14.01,7.33-28.03,10.99-42c1.09,0.86,2.33,1.85,2.03,1.61
			c3.13-6.95,5.96-13.9,9.36-20.57C318.21,190.45,322.06,183.66,321.37,173.44z M313.59,168.74c7.6-6.12,14.84-11.94,22.08-17.76
			c0.54,0.61,1.09,1.21,1.63,1.82c-0.83,1.25-1.99,2.39-2.44,3.77c-1.29,4-2.65,8.05-3.22,12.18c-0.19,1.4,1.93,3.12,2.99,4.69
			c1.17-1.11,2.94-2.02,3.41-3.38c2.67-7.83,5.03-15.76,7.56-23.88c-8.42-2.89-15.76-5.14-22.6,0.35
			C316.04,152.1,312.48,159.34,313.59,168.74z M369.54,118.75c1.51-12.44-1.43-15.74-11.42-13.49c-2.67,9.11,1.06,16.91,4.74,25.05
			c2.29-1.83,4.05-3.22,5.83-4.64c1.14,1.92,2.08,3.51,3.03,5.11c0.62-0.08,1.23-0.17,1.85-0.25c0.18-2.76,0.36-5.53,0.45-6.89
			c-4.7-2.14-8.08-3.67-11.46-5.21c0.31-0.67,0.62-1.34,0.93-2.01C365.28,117.12,367.08,117.81,369.54,118.75z M300.22,297.47
			c-2.71-10.84-5.05-20.16-7.58-30.25C283.49,274.64,287.57,291.47,300.22,297.47z M357.08,159.4c5.74-1.3,9.19-2.08,14.19-3.21
			c-1.31-3.11-1.75-6.51-3.67-8.02c-1.7-1.33-6.74-1.55-7.35-0.51C358.49,150.6,358.26,154.45,357.08,159.4z M386.53,157.63
			c0.07-0.71,0.14-1.43,0.21-2.14c-2.92-0.72-5.88-2.03-8.72-1.8c-0.85,0.07-1.35,4.44-2.5,8.58
			C380.68,160.1,383.6,158.86,386.53,157.63z"/>
		<path d="M332.63,395.43c3.3-2.95,6.85-5.68,9.83-8.92c4.25-4.63,8.94-9.17,11.88-14.59c4.26-7.84,1.06-17.27-6.83-21.95
			c-4.49-2.66-9.63-4.22-15.31-6.62c0-6.95,0-15.11,0-23.28c0.71-0.16,1.43-0.32,2.14-0.48c7.26,5.6,0.52,15.17,5.31,23.49
			c0.58-8.79,1.05-15.95,1.58-23.95c2.56,0.23,5.49,0.91,8.33,0.64c3.69-0.35,7.3-1.54,10.97-2.22c2.22-0.41,4.5-0.84,6.74-0.76
			c13.97,0.54,27.94,1.22,43.24,1.92c0,8.12,0.08,17.2-0.13,26.27c-0.02,0.84-1.7,1.88-2.81,2.43
			c-20.78,10.45-17.05,25.77-2.62,38.19c2.43,2.09,5.24,3.73,7.81,5.66c1.27,0.96,2.6,1.95,3.55,3.2c2.75,3.65,5.32,7.44,7.87,11.06
			c-6.61-0.67-14.55-1.47-23.17-2.34c-0.12-2.06-0.25-4.23-0.42-7.04c3.8-0.27,7.07-0.49,10.89-0.76c-7.02-4.13-13.47-7.93-21-12.37
			c0.69,5.14,1.26,9.37,1.97,14.69c-6.11,0-11.42-0.58-16.54,0.14c-7.35,1.02-14.52,3.38-21.87,4.45
			c-7.63,1.11-15.38,1.37-23.78,2.06c0.94-3.59,1.65-6.28,2.36-8.99c10.5,1.65,20.19,1.51,25.16-10.39
			c0.95-2.28,3.15-4.15,3.67-6.45c0.65-2.9,0.16-6.05,0.16-9.09c-0.72-0.09-1.44-0.18-2.17-0.27c-2.24,4.11-3.63,9.18-6.92,12.11
			C346.48,386.65,339.32,390.78,332.63,395.43z"/>
		<path d="M432.37,347.87c2.14,6.79,4.38,13.58,6.32,20.45c0.27,0.96-0.63,3.01-1.51,3.41c-4.68,2.12-4.31,4.7-2.85,9.26
			c2.95,9.22,4.62,18.87,6.6,28.39c0.4,1.92-0.17,4.03-0.32,6.38c-42.38,0-84.3,0-126.22,0c-0.35-0.63-0.7-1.26-1.05-1.89
			c2.01-1.2,3.97-3.3,6.05-3.44c8.28-0.55,16.63-0.2,24.91-0.76c5.15-0.35,10.58-0.93,15.27-2.87c10.66-4.4,20.76-3.84,31.27,0.36
			c4.33,1.73,9.28,2.43,13.99,2.59c11.12,0.36,22.27,0.12,34.83,0.12c-3.74-4.14-7.53-8.36-11.35-12.53
			c-1.05-1.15-3.32-2.35-3.19-3.24c1.05-6.77-4.63-7.22-8.34-9.81c-4.45-3.11-8.99-6.41-12.49-10.49
			c-6.29-7.36-4.2-15.02,4.89-18.51C416.56,352.45,424.26,350.43,432.37,347.87z"/>
		<path d="M308.82,406.05c1.94-8.55,3.94-17.27,5.87-26.02c0.38-1.74,1.24-4.68,0.57-5.14c-8.63-5.85-0.48-12.47-0.98-18.62
			c-0.17-2.07,1.25-4.27,2.24-7.34c8.96,2.46,18.31,4.18,26.93,7.69c6.15,2.5,6.16,13.11,0.44,19.32c-3.06,3.33-6.96,6-10.81,8.46
			c-3.75,2.41-8.86,3.28-7.96,9.62c0.11,0.8-1.65,2.05-2.74,2.82C318.14,399.82,313.82,402.67,308.82,406.05z"/>
		<path d="M462.13,319.26c-14.34,12.08-27.99,21.97-47.25,25.19c0.74-8.08,1.34-15.8,2.33-23.48c0.09-0.73,2.63-1.62,4.04-1.64
			C434.3,319.21,447.33,319.26,462.13,319.26z"/>
		<path d="M327.23,342.25c-13.01,1.31-34.14-10.47-39.33-21.76c12.93,0,25.82,0,39.33,0C327.23,328.34,327.23,335.3,327.23,342.25z
			 M324.1,332.06c0.7-1.12,1.4-2.24,2.1-3.36c-1.58-1.32-2.97-3.35-4.76-3.81c-3.52-0.9-7.26-1.01-10.92-1.29
			c-5.27-0.41-10.54-0.7-15.82-1.03c-0.13,0.94-0.25,1.87-0.38,2.81C304.25,327.6,314.17,329.83,324.1,332.06z"/>
	</g>
	<g>
		<path d="M553.78,582.36c-3.25-3.53-6.47-7.09-9.78-10.57c-1.34-1.41-1.89-3.04-1.58-4.85c1.29-7.62,3.29-15.03,7.16-21.8
			c2.66-4.65,7.34-6.13,12.65-4.08c1.82,0.7,1.82,0.7,2.88-0.83c2.62-3.78,6.16-5.99,10.79-6.29c3.13-0.2,5.92,0.91,8.54,2.44
			c3.06,1.79,5.79,4.01,8.24,6.57c1.95,2.04,3.97,4.05,5.73,6.25c3.65,4.56,6.52,9.54,7.04,15.53c0.31,3.56-0.85,6.62-3.28,9.26
			c-5.54,6.02-12.5,10.04-19.58,13.84c-4.27,2.29-8.77,4.17-13.18,6.2c-2.15,0.98-4.14,0.96-6.13-1.33
			C560.21,589.18,556.96,585.8,553.78,582.36z M602.13,560.55c0.03-0.39,0.08-0.52,0.03-0.59c-2.17-3.06-4.18-6.25-6.57-9.12
			c-2.03-2.45-4.4-4.65-6.8-6.75c-2.58-2.26-5.55-3.93-8.94-4.75c-5.25-1.26-9.53,1.53-10.93,6.18c0.17-0.05,0.3-0.08,0.43-0.12
			c5.45-1.91,10.73-1.28,15.84,1.18c4.93,2.37,9.06,5.82,12.92,9.63C599.46,557.55,600.69,559,602.13,560.55z M562.55,544.49
			c-0.6-0.27-1.03-0.49-1.47-0.65c-1.51-0.56-1.63-0.52-2.38,0.87c-2.34,4.34-4.22,8.87-5.35,13.68c-0.57,2.42-0.94,4.88-1.39,7.32
			c0.11,0.03,0.23,0.07,0.34,0.1C554.92,558.36,558.07,551.17,562.55,544.49z"/>
		<path d="M536.92,572.8c0.37,0.4,0.65,0.7,0.92,1c8.07,8.75,16.13,17.5,24.2,26.24c1.32,1.43,1.38,2.06,0.28,3.66
			c-1.6,2.34-3.68,4.16-6.15,5.54c-1.1,0.61-2.34,0.71-3.46,0.05c-2.41-1.42-4.87-2.77-7.12-4.43c-3.5-2.58-6.52-5.71-9.29-9.05
			c-3.38-4.07-6.48-8.34-8.17-13.47c-0.29-0.88-0.13-1.4,0.56-2.01C531.44,577.91,534.11,575.4,536.92,572.8z M549.66,598.04
			c-1.03,0.95-2.06,1.89-3.08,2.84c-0.96,0.9-1.03,1.85-0.08,2.7c0.89,0.79,1.84,1.55,2.88,2.11c0.46,0.25,1.42,0.21,1.8-0.11
			c2.18-1.86,4.27-3.83,6.36-5.79c0.75-0.71,0.71-1.53,0.02-2.29c-0.68-0.76-1.37-1.51-2.07-2.25c-0.85-0.89-1.75-0.94-2.66-0.12
			C551.76,596.09,550.71,597.07,549.66,598.04z"/>
		<path d="M526.62,582.36c5.15,12.22,13.7,21.33,24.95,28.06c-1.21,1.23-4.49,1.53-6.65-0.24c-2.84-2.33-5.66-4.72-8.26-7.3
			c-2.51-2.5-4.8-5.22-7.05-7.96c-1.42-1.73-2.72-3.6-3.81-5.56C524.47,586.91,524.9,584.51,526.62,582.36z"/>
		<path d="M538.28,572.21c1.65-0.74,3.57-0.38,4.87,1.02c6.52,7.04,13.03,14.09,19.51,21.16c1.14,1.24,1.65,3.6,0.6,4.92
			C554.94,590.28,546.62,581.26,538.28,572.21z"/>
	</g>
	<g>
		<path d="M371.36,642.57c1.81,0,3.61-0.04,5.42,0.03c0.44,0.02,1.06,0.27,1.27,0.62c1.9,3.13,3.76,6.29,5.55,9.49
			c0.25,0.45,0.27,1.29,0.02,1.73c-1.76,3.12-3.6,6.2-5.49,9.24c-0.26,0.42-0.96,0.78-1.46,0.79c-3.57,0.07-7.14,0.07-10.71-0.01
			c-0.54-0.01-1.27-0.42-1.55-0.88c-1.88-3-3.66-6.07-5.47-9.12c-0.35-0.59-0.36-1.15,0.01-1.76c1.91-3.17,3.79-6.37,5.73-9.53
			c0.19-0.32,0.76-0.55,1.16-0.56c1.84-0.06,3.69-0.03,5.54-0.03C371.36,642.58,371.36,642.58,371.36,642.57z"/>
		<path d="M388.58,630.66c1.4,0,2.81-0.05,4.21,0.03c0.44,0.03,1.01,0.33,1.27,0.69c2.14,2.93,3.97,6.04,5.44,9.38
			c0.51,1.16,0.1,2.1-0.18,2.98c-0.88,2.75-1.99,5.42-3.08,8.1c-0.12,0.28-0.7,0.53-1.07,0.53c-2.69,0.05-5.37,0.07-8.06-0.01
			c-0.47-0.01-1.09-0.46-1.35-0.88c-1.95-3.19-3.84-6.42-5.72-9.66c-0.17-0.29-0.26-0.74-0.15-1.04c1.07-3.15,2.16-6.3,3.31-9.42
			c0.11-0.31,0.6-0.66,0.94-0.67C385.61,630.62,387.1,630.66,388.58,630.66z"/>
		<path d="M354.12,630.66c1.28,0,2.57,0.09,3.84-0.03c0.96-0.09,1.37,0.39,1.63,1.14c0.92,2.61,1.74,5.27,2.77,7.84
			c0.49,1.23,0.3,2.08-0.4,3.18c-1.79,2.82-3.36,5.77-5.1,8.63c-0.28,0.46-0.95,0.92-1.46,0.94c-2.56,0.1-5.13,0.09-7.69,0.02
			c-0.48-0.01-1.24-0.31-1.39-0.67c-1.17-2.98-2.31-5.98-3.27-9.02c-0.23-0.73,0.06-1.74,0.38-2.52c1.3-3.18,3.02-6.14,5.21-8.8
			c0.29-0.35,0.82-0.65,1.26-0.68C351.31,630.6,352.72,630.66,354.12,630.66z"/>
		<path d="M371.36,666.82c1.89,0,3.77-0.05,5.66,0.03c0.53,0.02,1.18,0.27,1.54,0.64c1.58,1.59,3.11,3.24,4.59,4.92
			c0.24,0.28,0.43,1,0.26,1.18c-1.4,1.59-2.88,3.11-4.34,4.63c-0.92,0.96-2.19,1.18-3.4,1.25c-3.56,0.2-7.13,0.45-10.65-0.38
			c-0.34-0.08-0.74-0.18-0.96-0.42c-1.64-1.7-3.23-3.44-4.86-5.14c-0.47-0.5-0.27-0.78,0.13-1.19c1.67-1.68,3.29-3.4,4.98-5.06
			c0.29-0.29,0.84-0.44,1.27-0.45C367.51,666.79,369.43,666.82,371.36,666.82z"/>
		<path d="M371.36,640.24c-1.64,0-3.29-0.07-4.93,0.03c-0.93,0.06-1.43-0.29-1.72-1.08c-1.04-2.87-2.08-5.75-3.06-8.64
			c-0.09-0.27,0.11-0.83,0.35-0.99c2.96-1.95,5.95-3.86,8.96-5.74c0.18-0.11,0.6-0.01,0.83,0.13c2.8,1.75,5.56,3.55,8.37,5.28
			c0.84,0.52,0.88,1.19,0.6,1.95c-0.97,2.72-2.03,5.41-2.94,8.15c-0.27,0.8-0.68,0.94-1.41,0.93
			C374.73,640.22,373.05,640.25,371.36,640.24z"/>
		<path d="M370.17,618.66c0.61,2.23-0.56,3.23-2.43,4.23c-2.51,1.35-4.8,3.13-7.13,4.79c-0.7,0.5-1.35,0.65-2.21,0.61
			c-2.55-0.11-5.11-0.12-7.66-0.05c-0.77,0.02-1.13-0.05-1.32-0.88c-0.56-2.52-0.23-4.73,2.06-6.25c2.41-1.6,4.76-3.37,7.35-4.62
			c2.84-1.37,6.02-1.52,9.14-1.01c2.2,0.36,2.19,0.43,2.19,2.72C370.17,618.34,370.17,618.5,370.17,618.66z"/>
		<path d="M372.55,615.84c6.93-1.59,12.69,0.35,18,4.71c2.25,1.85,2.96,3.79,2.71,6.48c-0.1,1.06-0.32,1.27-1.41,1.22
			c-2.55-0.12-5.12-0.14-7.65,0.1c-1.37,0.13-2.04-0.73-2.94-1.29c-2.7-1.69-5.37-3.43-8.03-5.18c-0.3-0.2-0.64-0.61-0.65-0.94
			C372.51,619.25,372.55,617.57,372.55,615.84z"/>
		<path d="M346.78,654.92c3.31,0,6.26-0.02,9.22,0.03c0.29,0,0.65,0.39,0.84,0.69c1.86,3.06,3.7,6.14,5.51,9.23
			c0.14,0.23,0.13,0.74-0.03,0.92c-1.59,1.74-3.2,3.47-4.87,5.13c-0.21,0.21-0.89,0.24-1.18,0.07c-2.9-1.82-5.77-3.67-8.61-5.58
			c-1.1-0.74-0.96-2.09-1.01-3.17C346.54,659.86,346.72,657.47,346.78,654.92z"/>
		<path d="M395.86,659.81c0,0.8-0.1,1.62,0.02,2.4c0.28,1.88-0.56,3.15-2.06,4.1c-2.42,1.54-4.83,3.09-7.29,4.55
			c-0.35,0.21-1.16,0.14-1.44-0.13c-1.63-1.54-3.18-3.16-4.7-4.82c-0.21-0.23-0.19-0.9-0.01-1.22c1.78-3.11,3.6-6.19,5.47-9.26
			c0.18-0.29,0.7-0.53,1.06-0.53c2.65-0.04,5.29-0.01,7.94-0.03c0.71-0.01,1.02,0.21,1,0.96c-0.04,1.32-0.01,2.64-0.01,3.97
			C395.85,659.81,395.86,659.81,395.86,659.81z"/>
		<path d="M344.28,664.38c-1.36,0.44-2.03-0.01-2.63-1.18c-1.59-3.1-2.8-6.33-3.35-9.74c-0.58-3.54-1.07-7.14,0.03-10.87
			c0.53,0,1.13-0.07,1.7,0.03c0.26,0.04,0.62,0.38,0.67,0.64c0.74,3.4,2.01,6.59,3.53,9.7c0.28,0.58,0.25,1.35,0.24,2.03
			c-0.04,2.84-0.12,5.68-0.18,8.52C344.27,663.79,344.28,664.06,344.28,664.38z"/>
		<path d="M398.2,664.43c-0.02-0.27-0.09-0.47-0.05-0.65c0.58-2.87,0.45-5.74-0.03-8.6c-0.33-1.94,0.97-3.31,1.5-4.95
			c0.67-2.1,1.43-4.18,2.07-6.29c0.35-1.17,1.21-1.75,2.38-1.31c0.27,0.1,0.54,0.57,0.57,0.89c0.53,7.08-0.4,13.89-3.95,20.18
			C400.16,664.62,400.07,664.66,398.2,664.43z"/>
		<path d="M398.38,667.03c-2.53,4.58-10.02,10.52-16.75,12.29c1.18-1.39,2.45-2.72,3.51-4.19c0.79-1.08,1.82-1.68,2.92-2.35
			c2.82-1.72,5.52-3.62,8.3-5.41c0.55-0.35,1.24-0.49,1.86-0.72C398.28,666.78,398.33,666.91,398.38,667.03z"/>
		<path d="M344.39,666.73c0.63,0.19,1.33,0.25,1.86,0.59c3.09,1.97,6.18,3.94,9.17,6.05c1.13,0.8,2.02,1.97,2.97,3.01
			c0.87,0.94,1.67,1.93,2.5,2.9c-6.17-1.53-13.5-7.07-16.62-12.13C344.31,667.01,344.35,666.87,344.39,666.73z"/>
		<path d="M403.78,640.13c-1.75,0.36-1.81,0.21-2.56-1.18c-1.6-2.94-3.27-5.85-5.05-8.67c-0.46-0.73-0.75-1.36-0.68-2.19
			c0.08-0.95,0.16-1.9,0.24-2.85C397.98,625.47,403.96,636.38,403.78,640.13z"/>
		<path d="M346.74,624.87c0.17,1.5,0.34,2.71,0.44,3.93c0.02,0.24-0.13,0.54-0.29,0.75c-2.27,3.19-4.39,6.45-5.86,10.1
			c-0.43,1.08-1.49,0.56-2.48,0.54C340.03,634.4,342.4,629.23,346.74,624.87z"/>
		<path d="M363.36,681.12c0.56-0.95,1.37-0.6,2.09-0.55c2.23,0.16,4.45,0.46,6.67,0.46c1.78,0.01,3.56-0.37,5.35-0.5
			c0.6-0.04,1.21,0.13,1.79,0.39C373.98,682.4,368.73,682.38,363.36,681.12z"/>
	</g>
	<g>
		<path d="M159.03,550.45c-5.09,5.12-10.17,10.25-15.26,15.37c-1.77,1.78-3.11,1.78-4.91-0.01c-1.02-1.01-2.04-2.02-3.06-3.03
			c-1.59-1.58-1.58-3.02,0.03-4.65c3.87-3.9,7.74-7.8,11.62-11.71c6.33-6.38,12.66-12.76,18.99-19.13c1.77-1.78,3.11-1.78,4.91,0.01
			c0.99,0.98,1.98,1.96,2.97,2.95c1.71,1.7,1.71,3.07-0.03,4.82C169.2,540.2,164.11,545.32,159.03,550.45z"/>
		<path d="M186.67,577.88c5.06-5.1,10.11-10.19,15.17-15.29c1.85-1.86,3.17-1.88,5-0.06c1.11,1.1,2.22,2.19,3.32,3.3
			c1.18,1.19,1.21,2.68,0.12,3.94c-0.24,0.28-0.51,0.53-0.77,0.79c-10.06,10.13-20.11,20.26-30.17,30.4
			c-1.85,1.87-3.16,1.88-4.99,0.07c-1.02-1.01-2.04-2.02-3.06-3.03c-1.56-1.55-1.58-3-0.04-4.56
			C176.38,588.24,181.53,583.06,186.67,577.88z"/>
		<path d="M188.62,573.38c-2.17,2.19-4.28,4.31-6.45,6.5c-8.36-8.3-16.69-16.57-25.08-24.89c2.13-2.15,4.26-4.29,6.45-6.5
			C171.87,556.75,180.21,565.03,188.62,573.38z"/>
		<path d="M144.71,536.23c3.44-3.46,6.87-6.93,10.31-10.39c1.13-1.13,1.82-1.12,2.98,0.02c0.64,0.63,1.28,1.27,1.92,1.91
			c1.46,1.45,1.48,2.11,0.05,3.55c-5.46,5.5-10.92,11-16.37,16.5c-1.36,1.37-2.71,2.74-4.07,4.1c-0.93,0.92-1.84,0.92-2.75,0.03
			c-0.85-0.83-1.7-1.66-2.53-2.51c-0.92-0.94-0.93-1.69-0.01-2.63C137.72,543.27,141.23,539.76,144.71,536.23
			C144.72,536.23,144.72,536.23,144.71,536.23z"/>
		<path d="M200.99,592.09c-3.44,3.46-6.87,6.93-10.31,10.39c-1.14,1.15-1.83,1.14-2.98,0.01c-0.79-0.78-1.58-1.55-2.36-2.34
			c-0.86-0.88-0.91-1.83-0.07-2.67c6.98-7.05,13.97-14.09,20.96-21.12c0.85-0.85,1.79-0.82,2.67,0.04c0.82,0.8,1.64,1.61,2.45,2.42
			c1.03,1.04,1.05,1.78,0.03,2.81C207.92,585.11,204.45,588.6,200.99,592.09z"/>
		<path d="M146.64,531.67c-2.18,2.19-4.31,4.34-6.42,6.47c-1.85-0.86-2.03-2.44-1.84-4.14c0.04-0.36,0.33-0.74,0.58-1.03
			c0.48-0.56,1.03-1.06,1.55-1.58C142.73,529.15,144.47,529.21,146.64,531.67z"/>
		<path d="M199.07,596.63c2.17-2.18,4.27-4.3,6.37-6.42c2.39,1.39,2.72,3.74,0.83,5.64c-0.4,0.41-0.81,0.82-1.21,1.22
			C202.94,599.2,201.05,599.09,199.07,596.63z"/>
	</g>
	<path d="M220.41,399.95c-5.16-3.42-10.33-6.82-15.45-10.29c-1.01-0.68-1.73-0.6-2.7,0.06c-3.44,2.37-6.94,4.65-10.42,6.96
		c-1.66,1.1-3.32,2.21-5.24,3.48c0.35-1.4,0.6-2.52,0.91-3.64c0.69-2.5,1.41-4.98,2.12-7.47c0.69-2.43,1.39-4.85,2.08-7.28
		c0.26-0.92,0.21-1.58-0.76-2.28c-2.61-1.88-5.06-3.96-7.58-5.96c-2.22-1.77-4.45-3.53-6.68-5.3c-0.15-0.12-0.27-0.29-0.49-0.54
		c2.66-0.15,5.18-0.33,7.69-0.43c3.91-0.15,7.82-0.23,11.72-0.42c0.43-0.02,1.05-0.54,1.21-0.97c1.97-5.15,3.88-10.32,5.79-15.49
		c0.33-0.9,0.62-1.82,0.99-2.94c0.58,1.51,1.12,2.87,1.63,4.24c1.15,3.1,2.27,6.21,3.42,9.31c0.57,1.56,1.17,3.12,1.74,4.68
		c0.3,0.81,0.73,1.22,1.72,1.23c4.56,0.06,9.12,0.21,13.68,0.38c1.72,0.07,3.44,0.28,5.2,0.43c-0.01,0.05,0,0.19-0.05,0.23
		c-1.97,1.57-3.95,3.14-5.93,4.71c-2.14,1.7-4.29,3.39-6.44,5.08c-0.93,0.74-1.91,1.42-2.76,2.25c-0.3,0.29-0.44,0.98-0.33,1.4
		c0.88,3.22,1.86,6.42,2.76,9.64c0.68,2.43,1.29,4.87,1.94,7.31c0.13,0.5,0.3,1,0.46,1.5C220.57,399.89,220.49,399.92,220.41,399.95
		z"/>
	<path d="M548.91,400.22c-5.16-3.42-10.33-6.82-15.45-10.29c-1.01-0.68-1.73-0.6-2.7,0.06c-3.44,2.37-6.94,4.65-10.42,6.96
		c-1.66,1.1-3.32,2.21-5.24,3.48c0.35-1.4,0.6-2.52,0.91-3.64c0.69-2.5,1.41-4.98,2.12-7.47c0.69-2.43,1.39-4.85,2.08-7.28
		c0.26-0.92,0.21-1.58-0.76-2.28c-2.61-1.88-5.06-3.96-7.58-5.96c-2.22-1.77-4.45-3.53-6.68-5.3c-0.15-0.12-0.27-0.29-0.49-0.54
		c2.66-0.15,5.18-0.33,7.69-0.43c3.91-0.15,7.82-0.23,11.72-0.42c0.43-0.02,1.05-0.54,1.21-0.97c1.97-5.15,3.88-10.32,5.79-15.49
		c0.33-0.9,0.62-1.82,0.99-2.94c0.58,1.51,1.12,2.87,1.63,4.24c1.15,3.1,2.27,6.21,3.42,9.31c0.57,1.56,1.17,3.12,1.74,4.68
		c0.3,0.81,0.73,1.22,1.72,1.23c4.56,0.06,9.12,0.21,13.68,0.38c1.72,0.07,3.44,0.28,5.2,0.43c-0.01,0.05,0,0.19-0.05,0.23
		c-1.97,1.57-3.95,3.14-5.93,4.71c-2.14,1.7-4.29,3.39-6.44,5.08c-0.93,0.74-1.91,1.42-2.76,2.25c-0.3,0.29-0.44,0.98-0.33,1.4
		c0.88,3.22,1.86,6.42,2.76,9.64c0.68,2.43,1.29,4.87,1.94,7.31c0.13,0.5,0.3,1,0.46,1.5C549.07,400.16,548.99,400.19,548.91,400.22
		z"/>
	<path d="M461.53,660.33c-2.66-1.77-5.33-3.52-7.98-5.31c-0.52-0.35-0.89-0.31-1.39,0.03c-1.78,1.22-3.58,2.4-5.38,3.59
		c-0.86,0.57-1.72,1.14-2.7,1.8c0.18-0.72,0.31-1.3,0.47-1.88c0.36-1.29,0.73-2.57,1.1-3.86c0.36-1.25,0.72-2.5,1.07-3.76
		c0.13-0.47,0.11-0.82-0.39-1.17c-1.35-0.97-2.61-2.05-3.91-3.08c-1.15-0.91-2.3-1.82-3.45-2.74c-0.08-0.06-0.14-0.15-0.26-0.28
		c1.38-0.08,2.67-0.17,3.97-0.22c2.02-0.08,4.04-0.12,6.05-0.22c0.22-0.01,0.54-0.28,0.62-0.5c1.02-2.66,2-5.33,2.99-8
		c0.17-0.47,0.32-0.94,0.51-1.52c0.3,0.78,0.58,1.48,0.84,2.19c0.59,1.6,1.17,3.21,1.76,4.81c0.3,0.81,0.6,1.61,0.9,2.42
		c0.15,0.42,0.38,0.63,0.89,0.64c2.36,0.03,4.71,0.11,7.07,0.2c0.89,0.03,1.78,0.14,2.68,0.22c-0.01,0.03,0,0.1-0.03,0.12
		c-1.02,0.81-2.04,1.62-3.06,2.43c-1.11,0.88-2.22,1.75-3.32,2.62c-0.48,0.38-0.99,0.73-1.42,1.16c-0.15,0.15-0.23,0.51-0.17,0.72
		c0.45,1.66,0.96,3.32,1.43,4.98c0.35,1.25,0.67,2.52,1,3.77c0.07,0.26,0.16,0.52,0.24,0.77
		C461.62,660.29,461.57,660.31,461.53,660.33z"/>
	<path d="M517.78,638.58c-2.66-1.77-5.33-3.52-7.98-5.31c-0.52-0.35-0.89-0.31-1.39,0.03c-1.78,1.22-3.58,2.4-5.38,3.59
		c-0.86,0.57-1.72,1.14-2.7,1.8c0.18-0.72,0.31-1.3,0.47-1.88c0.36-1.29,0.73-2.57,1.1-3.86c0.36-1.25,0.72-2.5,1.07-3.76
		c0.13-0.47,0.11-0.82-0.39-1.17c-1.35-0.97-2.61-2.04-3.91-3.08c-1.15-0.91-2.3-1.82-3.45-2.74c-0.08-0.06-0.14-0.15-0.26-0.28
		c1.38-0.08,2.67-0.17,3.97-0.22c2.02-0.08,4.04-0.12,6.05-0.22c0.22-0.01,0.54-0.28,0.62-0.5c1.02-2.66,2-5.33,2.99-8
		c0.17-0.47,0.32-0.94,0.51-1.52c0.3,0.78,0.58,1.48,0.84,2.19c0.59,1.6,1.17,3.21,1.76,4.81c0.3,0.81,0.6,1.61,0.9,2.42
		c0.15,0.42,0.38,0.63,0.89,0.64c2.36,0.03,4.71,0.11,7.07,0.2c0.89,0.03,1.78,0.14,2.68,0.22c-0.01,0.03,0,0.1-0.03,0.12
		c-1.02,0.81-2.04,1.62-3.06,2.43c-1.11,0.88-2.22,1.75-3.32,2.62c-0.48,0.38-0.99,0.73-1.42,1.16c-0.15,0.15-0.23,0.51-0.17,0.72
		c0.45,1.66,0.96,3.32,1.43,4.98c0.35,1.25,0.67,2.52,1,3.77c0.07,0.26,0.16,0.52,0.24,0.77
		C517.87,638.55,517.82,638.57,517.78,638.58z"/>
	<path d="M284.55,659.95c2.66-1.77,5.33-3.52,7.98-5.31c0.52-0.35,0.89-0.31,1.39,0.03c1.78,1.22,3.58,2.4,5.38,3.59
		c0.86,0.57,1.72,1.14,2.7,1.8c-0.18-0.72-0.31-1.3-0.47-1.88c-0.36-1.29-0.73-2.57-1.1-3.86c-0.36-1.25-0.72-2.5-1.07-3.76
		c-0.13-0.47-0.11-0.82,0.39-1.17c1.35-0.97,2.61-2.04,3.91-3.08c1.15-0.91,2.3-1.82,3.45-2.74c0.08-0.06,0.14-0.15,0.26-0.28
		c-1.38-0.08-2.67-0.17-3.97-0.22c-2.02-0.08-4.04-0.12-6.05-0.22c-0.22-0.01-0.54-0.28-0.62-0.5c-1.02-2.66-2-5.33-2.99-8
		c-0.17-0.47-0.32-0.94-0.51-1.52c-0.3,0.78-0.58,1.48-0.84,2.19c-0.59,1.6-1.17,3.21-1.76,4.81c-0.3,0.81-0.6,1.61-0.9,2.42
		c-0.15,0.42-0.38,0.63-0.89,0.64c-2.36,0.03-4.71,0.11-7.07,0.2c-0.89,0.03-1.78,0.14-2.68,0.22c0.01,0.03,0,0.1,0.03,0.12
		c1.02,0.81,2.04,1.62,3.06,2.43c1.11,0.88,2.22,1.75,3.32,2.62c0.48,0.38,0.99,0.73,1.42,1.16c0.15,0.15,0.23,0.51,0.17,0.72
		c-0.45,1.66-0.96,3.32-1.43,4.98c-0.35,1.25-0.67,2.52-1,3.77c-0.07,0.26-0.16,0.52-0.24,0.77
		C284.47,659.92,284.51,659.94,284.55,659.95z"/>
	<path d="M228.3,638.21c2.66-1.77,5.33-3.52,7.98-5.31c0.52-0.35,0.89-0.31,1.39,0.03c1.78,1.22,3.58,2.4,5.38,3.59
		c0.86,0.57,1.72,1.14,2.7,1.8c-0.18-0.72-0.31-1.3-0.47-1.88c-0.36-1.29-0.73-2.57-1.1-3.86c-0.36-1.25-0.72-2.5-1.07-3.76
		c-0.13-0.47-0.11-0.82,0.39-1.17c1.35-0.97,2.61-2.04,3.91-3.08c1.15-0.91,2.3-1.82,3.45-2.74c0.08-0.06,0.14-0.15,0.26-0.28
		c-1.38-0.08-2.67-0.17-3.97-0.22c-2.02-0.08-4.04-0.12-6.05-0.22c-0.22-0.01-0.54-0.28-0.62-0.5c-1.02-2.66-2-5.33-2.99-8
		c-0.17-0.47-0.32-0.94-0.51-1.52c-0.3,0.78-0.58,1.48-0.84,2.19c-0.59,1.6-1.17,3.21-1.76,4.81c-0.3,0.81-0.6,1.61-0.9,2.42
		c-0.15,0.42-0.38,0.63-0.89,0.64c-2.36,0.03-4.71,0.11-7.07,0.2c-0.89,0.03-1.78,0.14-2.68,0.22c0.01,0.03,0,0.1,0.03,0.12
		c1.02,0.81,2.04,1.62,3.06,2.43c1.11,0.88,2.22,1.75,3.32,2.62c0.48,0.38,0.99,0.73,1.42,1.16c0.15,0.15,0.23,0.51,0.17,0.72
		c-0.45,1.66-0.96,3.32-1.43,4.98c-0.35,1.25-0.67,2.52-1,3.77c-0.07,0.26-0.16,0.52-0.24,0.77
		C228.22,638.18,228.26,638.19,228.3,638.21z"/>
</g>
</svg>
